/* XPM */
static char *bbrzi_yws02[] = {
/* columns rows colors chars-per-pixel */
"114 34 148 2 ",
"   c #16212F",
".  c #172230",
"X  c #182230",
"o  c #182331",
"O  c #192432",
"+  c #1A2432",
"@  c #1A2533",
"#  c #1B2533",
"$  c #1B2634",
"%  c #1C2735",
"&  c #1D2836",
"*  c #1E2937",
"=  c #1F2937",
"-  c #1F2A38",
";  c #202B39",
":  c #212C3A",
">  c #222D3A",
",  c #232E3C",
"<  c #252F3D",
"1  c #25303E",
"2  c #26303E",
"3  c #26313F",
"4  c #273140",
"5  c #273240",
"6  c #293442",
"7  c #2A3443",
"8  c #2A3543",
"9  c #2B3644",
"0  c #2C3744",
"q  c #2D3846",
"w  c #2E3946",
"e  c #2E3847",
"r  c #303A48",
"t  c #313C49",
"y  c #313C4A",
"u  c #343E4D",
"i  c #343F4D",
"p  c #35404D",
"a  c #35404F",
"s  c #384351",
"d  c #394452",
"f  c #3C4756",
"g  c #3D4857",
"h  c #3F4957",
"j  c #3F4A59",
"k  c #404B58",
"l  c #414C59",
"z  c #424D5A",
"x  c #414C5C",
"c  c #444F5F",
"v  c #455160",
"b  c #475262",
"n  c #485363",
"m  c #495464",
"M  c #4B5666",
"N  c #4C5868",
"B  c #4E5969",
"V  c #4E5A6A",
"C  c #4F5B6B",
"Z  c #505C6C",
"A  c #525E6E",
"S  c #535E6F",
"D  c #545E6C",
"F  c #556172",
"G  c #576374",
"H  c #596471",
"J  c #5A6572",
"K  c #586475",
"L  c #596677",
"P  c #5C6774",
"I  c #5C697A",
"U  c #5F6C7D",
"Y  c #626C7A",
"T  c #656F7C",
"R  c #67727F",
"E  c #626E80",
"W  c #637082",
"Q  c #647083",
"!  c #657283",
"~  c #677486",
"^  c #677487",
"/  c #6A7582",
"(  c #677488",
")  c #687589",
"_  c #697789",
"`  c #6A768A",
"'  c #6A778A",
"]  c #6A788B",
"[  c #6C798C",
"{  c #6D7A8C",
"}  c #6E7C8F",
"|  c #6F7D8F",
" . c #727C89",
".. c #757F8C",
"X. c #717F91",
"o. c #717F92",
"O. c #728193",
"+. c #738194",
"@. c #738295",
"#. c #748295",
"$. c #748395",
"%. c #758396",
"&. c #778498",
"*. c #778599",
"=. c #77869A",
"-. c #788599",
";. c #78879B",
":. c #7A879B",
">. c #79889C",
",. c #7A889C",
"<. c #7A899D",
"1. c #7A8A9E",
"2. c #7C8A9F",
"3. c #7D8B9F",
"4. c #7F8CA2",
"5. c #7F8EA2",
"6. c #7F8EA4",
"7. c #838D9A",
"8. c #87919E",
"9. c #8090A5",
"0. c #8190A5",
"q. c #8291A6",
"w. c #8A94A1",
"e. c #8493A8",
"r. c #919BA8",
"t. c #939DAA",
"y. c #99A4B0",
"u. c #9BA6B2",
"i. c #9DA7B4",
"p. c #9FA9B6",
"a. c #A0AAB6",
"s. c #A0ABB7",
"d. c #A1ABB8",
"f. c #A2ADB9",
"g. c #A6B0BC",
"h. c #AFB9C5",
"j. c #B0BAC6",
"k. c #B4BECA",
"l. c #B5BFCC",
"z. c #B6C0CC",
"x. c #B9C3CF",
"c. c #BBC5D1",
"v. c #BCC6D2",
"b. c #C0CAD6",
"n. c #C2CCD8",
"m. c #C3CDD9",
"M. c #C4CEDA",
"N. c #C5D0DC",
/* pixels */
"                                                                                                                                                                                                                                    ",
"                                                                                                                                                                                                                                    ",
"                                                                                                                                                                                                                                    ",
"                                                                                                                                                                                                                                    ",
"              % % % % % % % % % % % % % % % % % % % % % % % % % % % % % % % % % % % % % % % % % % % % % % % % % % % % % % % % % % % % % % % % % % % % % % % % % % % % % % % % % % % % % % % % % % % % % % % % % % % @               ",
"        w r.v.M.m.m.m.m.m.m.m.m.m.m.m.m.m.m.m.m.m.m.m.m.m.m.m.m.m.m.m.m.m.m.m.m.m.m.m.m.m.m.m.m.m.m.m.m.m.m.m.m.m.m.m.m.m.m.m.m.m.m.m.m.m.m.m.m.m.m.m.m.m.m.m.m.m.m.m.m.m.m.m.m.m.m.m.m.m.m.m.m.m.m.m.m.m.m.m.m.m.m.N.j. .@         ",
"      t c.R 5                                                                                                                                                                                                       o p r.u..       ",
"      y.Y                                                                                                                                                                                                               o p.J       ",
"    @ m.&                                                                                                                                                                                                                 H w.      ",
"    9 l.                                                                                                                                                                                                                  k s.      ",
"    0 k.                                                                                                                                                                                                                  h d.      ",
"    0 k.                                                                                                                                                                                                                  h d.      ",
"    0 k.                                                                                                    X :                   * O                                                                                     h d.      ",
"    0 k.                                                                                  a 3.>.| C     & U ;.O.-.M .   c ]   * ( %.1.U                                                                                   h d.      ",
"    0 k.                                                                                  s 2.O g q.e   W _ $   7 <.v   n o.  V Q   X 4                                                                                   h d.      ",
"    0 k.                                                                                  s 2.  , 6.4 6 e.g       I $.  n o.  S X.;                                                                                       h d.      ",
"    0 k.                                                                                  s 5.G } b   j 9.$       j q.O n o.  > { :.j                                                                                     h d.      ",
"    0 k.                                                                                  s 4.N ' Q ; x 5.O       f q.# n o.    o A 9.F                                                                                   h d.      ",
"    0 k.                                                                                  s 2.  X #.C q e.d       L =.  n o.        f 0.;                                                                                 h d.      ",
"    0 k.                                                                                  s 2.  = ,.Z   ` E .   : &.B   n o.  2 .   r 1.#                                                                                 h d.      ",
"    0 k.                                                                                  s q.*.:.~ -   < [ @.^ ,.K o   n o.  ! 2.) +.m                                                                                   h d.      ",
"    0 k.                                                                                  o & & X           1 u &       O %   . 2 y .                                                                                     h d.      ",
"    0 k.                                                                                                                                                                                                                  h d.      ",
"    0 k.                                                                                                                                                                                                                  h d.      ",
"    0 k.                                                                                                                                                                                                                  h d.      ",
"    8 z.                                                                                                                                                                                                                  l a.      ",
"    O n.-                                                                                                                                                                                                                 P 8.      ",
"      t./                                                                                                                                                                                                               + g.D       ",
"      9 x...i & % % % % % % % % % % % % % % % % % % % % % % % % % % % % % % % % % % % % % % % % % % % % % % % % % % % % % % % % % % % % % % % % % % % % % % % % % % % % % % % % % % % % % % % % % % % % % % % % % % : z i.r.        ",
"        3 7.h.m.m.m.m.m.m.m.m.m.m.m.m.m.m.m.m.m.m.m.m.m.m.m.m.m.m.m.m.m.m.m.m.m.m.m.m.m.m.m.m.m.m.m.m.m.m.m.m.m.m.m.m.m.m.m.m.m.m.m.m.m.m.m.m.m.m.m.m.m.m.m.m.m.m.m.m.m.m.m.m.m.m.m.m.m.m.m.m.m.m.m.m.m.m.m.m.m.m.m.b.f.T .         ",
"                                                                                                                                                                                                                                    ",
"                                                                                                                                                                                                                                    ",
"                                                                                                                                                                                                                                    ",
"                                                                                                                                                                                                                                    "
};
