/* XPM */
static char *y6jac_pmvdj[] = {
/* columns rows colors chars-per-pixel */
"114 34 122 2 ",
"   c #16212F",
".  c #172230",
"X  c #182331",
"o  c #192431",
"O  c #192432",
"+  c #1A2532",
"@  c #1A2533",
"#  c #1C2634",
"$  c #1D2735",
"%  c #1F2936",
"&  c #222C39",
"*  c #252E3B",
"=  c #28323E",
"-  c #2C3541",
";  c #2B3644",
":  c #323B47",
">  c #303B49",
",  c #343D49",
"<  c #363F4B",
"1  c #38414C",
"2  c #39424D",
"3  c #3A434E",
"4  c #3B444F",
"5  c #384351",
"6  c #3E4652",
"7  c #3F4753",
"8  c #404854",
"9  c #424A55",
"0  c #424B56",
"q  c #45505D",
"w  c #48505B",
"e  c #48515C",
"r  c #49525D",
"t  c #4A525E",
"y  c #4B535E",
"u  c #4D5560",
"i  c #505863",
"p  c #515964",
"a  c #555E69",
"s  c #565F6A",
"d  c #5A626D",
"f  c #586270",
"g  c #5D6570",
"h  c #5E6671",
"j  c #5F6873",
"k  c #5D6875",
"l  c #616974",
"z  c #626A75",
"x  c #626B76",
"c  c #646C77",
"v  c #616B79",
"b  c #666E79",
"n  c #676F7A",
"m  c #6B737E",
"M  c #6B747F",
"N  c #6A7482",
"B  c #6E7681",
"V  c #6D7785",
"C  c #707984",
"Z  c #757D88",
"A  c #76818D",
"S  c #7A828D",
"D  c #798490",
"F  c #7F8792",
"G  c #818A95",
"H  c #808A97",
"J  c #838B96",
"K  c #808B98",
"L  c #828C99",
"P  c #868E99",
"I  c #848F9B",
"U  c #89929D",
"Y  c #8B939E",
"T  c #8D96A1",
"R  c #8E97A2",
"E  c #8F98A3",
"W  c #9099A4",
"Q  c #9199A5",
"!  c #939CA7",
"~  c #959EA9",
"^  c #98A1AC",
"/  c #99A2AD",
"(  c #98A2AF",
")  c #9AA3AE",
"_  c #9AA4B0",
"`  c #9CA5B0",
"'  c #9DA6B2",
"]  c #A1AAB5",
"[  c #A4ADB8",
"{  c #A6AFBA",
"}  c #A6B0BB",
"|  c #A7B0BC",
" . c #A7B1BC",
".. c #ABB4C0",
"X. c #ACB5C1",
"o. c #ACB6C3",
"O. c #AFB8C3",
"+. c #AFB9C5",
"@. c #B0BAC5",
"#. c #B3BCC8",
"$. c #B4BECA",
"%. c #B6C0CB",
"&. c #B7C0CC",
"*. c #B7C2CD",
"=. c #BAC3CF",
"-. c #BAC4D0",
";. c #BCC6D2",
":. c #BCC6D3",
">. c #BDC7D3",
",. c #BEC8D3",
"<. c #BEC8D4",
"1. c #BFC9D5",
"2. c #C0CAD6",
"3. c #C1CBD7",
"4. c #C2CCD8",
"5. c #C3CDD9",
"6. c #C4CEDA",
"7. c #C5CFDB",
"8. c #C6D0DC",
"9. c #C7D1DD",
"0. c #C8D2DE",
"q. c #C9D3DF",
/* pixels */
"                                                                                                                                                                                                                                    ",
"                                                                                                                                                                                                                                    ",
"                                                                                                                                                                                                                                    ",
"                                                                                                                                                                                                                                    ",
"                                                                                                                                                                                                                                    ",
"        + N +.q.q.q.q.q.q.q.q.q.q.q.q.q.q.q.q.q.q.q.q.q.q.q.q.q.q.q.q.q.q.q.q.q.q.q.q.q.q.q.q.q.q.q.q.q.q.q.q.q.q.q.q.q.q.q.q.q.q.q.q.q.q.q.q.q.q.q.q.q.q.q.q.q.q.q.q.q.q.q.q.q.q.q.q.q.q.q.q.q.q.q.q.q.q.q.q.q.q.q.9._ q           ",
"      @ *.q.q.q.q.q.q.q.q.q.q.q.q.q.q.q.q.q.q.q.q.q.q.q.q.q.q.q.q.q.q.q.q.q.q.q.q.q.q.q.q.q.q.q.q.q.q.q.q.q.q.q.q.q.q.q.q.q.q.q.q.q.q.q.q.q.q.q.q.q.q.q.q.q.q.q.q.q.q.q.q.q.q.q.q.q.q.q.q.q.q.q.q.q.q.q.q.q.q.q.q.q.q.q.q.D         ",
"      A q.q.q.q.q.q.q.q.q.q.q.q.q.q.q.q.q.q.q.q.q.q.q.q.q.q.q.q.q.q.q.q.q.q.q.q.q.q.q.q.q.q.q.q.q.q.q.q.q.q.q.q.q.q.q.q.q.q.q.q.q.q.q.q.q.q.q.q.q.q.q.q.q.q.q.q.q.q.q.q.q.q.q.q.q.q.q.q.q.q.q.q.q.q.q.q.q.q.q.q.q.q.q.q.q.q.>       ",
"      3.q.q.q.q.q.q.q.q.q.q.q.q.q.q.q.q.q.q.q.q.q.q.q.q.q.q.q.q.q.q.q.q.q.q.q.q.q.q.q.q.q.q.q.q.q.q.q.q.q.q.q.q.q.q.q.q.q.q.q.q.q.q.q.q.q.q.q.q.q.q.q.q.q.q.q.q.q.q.q.q.q.q.q.q.q.q.q.q.q.q.q.q.q.q.q.q.q.q.q.q.q.q.q.q.q.q.v       ",
"    O q.q.q.q.q.q.q.q.q.q.q.q.q.q.q.q.q.q.q.q.q.q.q.q.q.q.q.q.q.q.q.q.q.q.q.q.q.q.q.q.q.q.q.q.q.q.q.q.q.q.q.q.q.q.q.q.q.q.q.q.q.q.q.q.q.q.q.q.q.q.q.q.q.q.q.q.q.q.q.q.q.q.q.q.q.q.q.q.q.q.q.q.q.q.q.q.q.q.q.q.q.q.q.q.q.q.q.K       ",
"    O q.q.q.q.q.q.q.q.q.q.q.q.q.q.q.q.q.q.q.q.q.q.q.q.q.q.q.q.q.q.q.q.q.q.q.q.q.q.q.q.q.q.q.q.q.q.q.q.q.q.q.q.q.q.q.q.q.q.q.q.q.q.q.q.q.q.q.q.q.q.q.q.q.q.q.q.q.q.q.q.q.q.q.q.q.q.q.q.q.q.q.q.q.q.q.q.q.q.q.q.q.q.q.q.q.q.q.L       ",
"    O q.q.q.q.q.q.q.q.q.q.q.q.q.q.q.q.q.q.q.q.q.q.q.q.q.q.q.q.q.q.q.q.q.q.q.q.q.q.q.q.q.q.q.q.q.q.q.q.q.q.q.q.q.q.q.q.q.q.q.q.q.q.q.q.q.q.q.q.q.q.q.q.q.q.q.q.q.q.q.q.q.q.q.q.q.q.q.q.q.q.q.q.q.q.q.q.q.q.q.q.q.q.q.q.q.q.q.L       ",
"    O q.q.q.q.q.q.q.q.q.q.q.q.q.q.q.q.q.q.q.q.q.q.q.q.q.q.q.q.q.q.q.q.q.q.q.q.q.q.q.q.q.q.q.q.q.q.q.q.q.q.q.0.3.q.q.q.q.q.q.q.q.q.5.9.q.q.q.q.q.q.q.q.q.q.q.q.q.q.q.q.q.q.q.q.q.q.q.q.q.q.q.q.q.q.q.q.q.q.q.q.q.q.q.q.q.q.q.L       ",
"    O q.q.q.q.q.q.q.q.q.q.q.q.q.q.q.q.q.q.q.q.q.q.q.q.q.q.q.q.q.q.q.q.q.q.q.q.q.q.q.q.q.q.O.: 3 a E q.q.6.Z 6 u 7 ~ 0.q.' h q.5.c e < Z q.q.q.q.q.q.q.q.q.q.q.q.q.q.q.q.q.q.q.q.q.q.q.q.q.q.q.q.q.q.q.q.q.q.q.q.q.q.q.q.q.q.L       ",
"    O q.q.q.q.q.q.q.q.q.q.q.q.q.q.q.q.q.q.q.q.q.q.q.q.q.q.q.q.q.q.q.q.q.q.q.q.q.q.q.q.q.q.X., 9.{ # %.q.B z 7.q.=.1 ` q./ p q.W M q.0.;.q.q.q.q.q.q.q.q.q.q.q.q.q.q.q.q.q.q.q.q.q.q.q.q.q.q.q.q.q.q.q.q.q.q.q.q.q.q.q.q.q.q.L       ",
"    O q.q.q.q.q.q.q.q.q.q.q.q.q.q.q.q.q.q.q.q.q.q.q.q.q.q.q.q.q.q.q.q.q.q.q.q.q.q.q.q.q.q.X., q.1.* ;.-.  } q.q.q.S w q./ p q.U i 4.q.q.q.q.q.q.q.q.q.q.q.q.q.q.q.q.q.q.q.q.q.q.q.q.q.q.q.q.q.q.q.q.q.q.q.q.q.q.q.q.q.q.q.q.L       ",
"    O q.q.q.q.q.q.q.q.q.q.q.q.q.q.q.q.q.q.q.q.q.q.q.q.q.q.q.q.q.q.q.q.q.q.q.q.q.q.q.q.q.q.X.= J s ) q.[ & 7.q.q.q.[ $ 9./ p q.2.d 4 [ q.q.q.q.q.q.q.q.q.q.q.q.q.q.q.q.q.q.q.q.q.q.q.q.q.q.q.q.q.q.q.q.q.q.q.q.q.q.q.q.q.q.q.L       ",
"    O q.q.q.q.q.q.q.q.q.q.q.q.q.q.q.q.q.q.q.q.q.q.q.q.q.q.q.q.q.q.q.q.q.q.q.q.q.q.q.q.q.q.X.- ! j M 4.] = 9.q.q.q. .o 8./ p q.q.9.Y & P q.q.q.q.q.q.q.q.q.q.q.q.q.q.q.q.q.q.q.q.q.q.q.q.q.q.q.q.q.q.q.q.q.q.q.q.q.q.q.q.q.q.L       ",
"    O q.q.q.q.q.q.q.q.q.q.q.q.q.q.q.q.q.q.q.q.q.q.q.q.q.q.q.q.q.q.q.q.q.q.q.q.q.q.q.q.q.q.X., q.0.t R &.  ..q.q.q.F 8 q./ p q.q.q.q.| % 4.q.q.q.q.q.q.q.q.q.q.q.q.q.q.q.q.q.q.q.q.q.q.q.q.q.q.q.q.q.q.q.q.q.q.q.q.q.q.q.q.q.L       ",
"    O q.q.q.q.q.q.q.q.q.q.q.q.q.q.q.q.q.q.q.q.q.q.q.q.q.q.q.q.q.q.q.q.q.q.q.q.q.q.q.q.q.q.X., q.5.2 T q.l C 0.q.3.0 Q q./ p q.>.0.q.$.< 8.q.q.q.q.q.q.q.q.q.q.q.q.q.q.q.q.q.q.q.q.q.q.q.q.q.q.q.q.q.q.q.q.q.q.q.q.q.q.q.q.q.L       ",
"    O q.q.q.q.q.q.q.q.q.q.q.q.q.q.q.q.q.q.q.q.q.q.q.q.q.q.q.q.q.q.q.q.q.q.q.q.q.q.q.q.q.q.X.# 9 4 n 4.q.<.g r b 2 G 9.q./ p q.m , x y ^ q.q.q.q.q.q.q.q.q.q.q.q.q.q.q.q.q.q.q.q.q.q.q.q.q.q.q.q.q.q.q.q.q.q.q.q.q.q.q.q.q.q.L       ",
"    O q.q.q.q.q.q.q.q.q.q.q.q.q.q.q.q.q.q.q.q.q.q.q.q.q.q.q.q.q.q.q.q.q.q.q.q.q.q.q.q.q.q.9.6.6.0.q.q.q.q.q.,.@.6.q.q.q.9.7.q.0.>.#.0.q.q.q.q.q.q.q.q.q.q.q.q.q.q.q.q.q.q.q.q.q.q.q.q.q.q.q.q.q.q.q.q.q.q.q.q.q.q.q.q.q.q.q.L       ",
"    O q.q.q.q.q.q.q.q.q.q.q.q.q.q.q.q.q.q.q.q.q.q.q.q.q.q.q.q.q.q.q.q.q.q.q.q.q.q.q.q.q.q.q.q.q.q.q.q.q.q.q.q.q.q.q.q.q.q.q.q.q.q.q.q.q.q.q.q.q.q.q.q.q.q.q.q.q.q.q.q.q.q.q.q.q.q.q.q.q.q.q.q.q.q.q.q.q.q.q.q.q.q.q.q.q.q.q.L       ",
"    O q.q.q.q.q.q.q.q.q.q.q.q.q.q.q.q.q.q.q.q.q.q.q.q.q.q.q.q.q.q.q.q.q.q.q.q.q.q.q.q.q.q.q.q.q.q.q.q.q.q.q.q.q.q.q.q.q.q.q.q.q.q.q.q.q.q.q.q.q.q.q.q.q.q.q.q.q.q.q.q.q.q.q.q.q.q.q.q.q.q.q.q.q.q.q.q.q.q.q.q.q.q.q.q.q.q.q.L       ",
"    O q.q.q.q.q.q.q.q.q.q.q.q.q.q.q.q.q.q.q.q.q.q.q.q.q.q.q.q.q.q.q.q.q.q.q.q.q.q.q.q.q.q.q.q.q.q.q.q.q.q.q.q.q.q.q.q.q.q.q.q.q.q.q.q.q.q.q.q.q.q.q.q.q.q.q.q.q.q.q.q.q.q.q.q.q.q.q.q.q.q.q.q.q.q.q.q.q.q.q.q.q.q.q.q.q.q.q.L       ",
"    X q.q.q.q.q.q.q.q.q.q.q.q.q.q.q.q.q.q.q.q.q.q.q.q.q.q.q.q.q.q.q.q.q.q.q.q.q.q.q.q.q.q.q.q.q.q.q.q.q.q.q.q.q.q.q.q.q.q.q.q.q.q.q.q.q.q.q.q.q.q.q.q.q.q.q.q.q.q.q.q.q.q.q.q.q.q.q.q.q.q.q.q.q.q.q.q.q.q.q.q.q.q.q.q.q.q.q.H       ",
"      :.q.q.q.q.q.q.q.q.q.q.q.q.q.q.q.q.q.q.q.q.q.q.q.q.q.q.q.q.q.q.q.q.q.q.q.q.q.q.q.q.q.q.q.q.q.q.q.q.q.q.q.q.q.q.q.q.q.q.q.q.q.q.q.q.q.q.q.q.q.q.q.q.q.q.q.q.q.q.q.q.q.q.q.q.q.q.q.q.q.q.q.q.q.q.q.q.q.q.q.q.q.q.q.q.q.q.k       ",
"      V q.q.q.q.q.q.q.q.q.q.q.q.q.q.q.q.q.q.q.q.q.q.q.q.q.q.q.q.q.q.q.q.q.q.q.q.q.q.q.q.q.q.q.q.q.q.q.q.q.q.q.q.q.q.q.q.q.q.q.q.q.q.q.q.q.q.q.q.q.q.q.q.q.q.q.q.q.q.q.q.q.q.q.q.q.q.q.q.q.q.q.q.q.q.q.q.q.q.q.q.q.q.q.q.q.q.;       ",
"      O o.q.q.q.q.q.q.q.q.q.q.q.q.q.q.q.q.q.q.q.q.q.q.q.q.q.q.q.q.q.q.q.q.q.q.q.q.q.q.q.q.q.q.q.q.q.q.q.q.q.q.q.q.q.q.q.q.q.q.q.q.q.q.q.q.q.q.q.q.q.q.q.q.q.q.q.q.q.q.q.q.q.q.q.q.q.q.q.q.q.q.q.q.q.q.q.q.q.q.q.q.q.q.q.q.N         ",
"        . f ( :.>.>.>.>.>.>.>.>.>.>.>.>.>.>.>.>.>.>.>.>.>.>.>.>.>.>.>.>.>.>.>.>.>.>.>.>.>.>.>.>.>.>.>.>.>.>.>.>.>.>.>.>.>.>.>.>.>.>.>.>.>.>.>.>.>.>.>.>.>.>.>.>.>.>.>.>.>.>.>.>.>.>.>.>.>.>.>.>.>.>.>.>.>.>.>.>.>.>.*.I 5           ",
"                                                                                                                                                                                                                                    ",
"                                                                                                                                                                                                                                    ",
"                                                                                                                                                                                                                                    ",
"                                                                                                                                                                                                                                    "
};
