/* XPM */
static char *cone[] = {
/* columns rows colors chars-per-pixel */
"30 30 169 2 ",
"   c #28282A",
".  c gray17",
"X  c #2A2B2D",
"o  c #2C2C2C",
"O  c #2D2D2D",
"+  c #2C2D2F",
"@  c #2D2D2F",
"#  c gray18",
"$  c #2F2F2F",
"%  c #2D2E30",
"&  c #2F2F31",
"*  c #2F3032",
"=  c gray19",
"-  c #313131",
";  c #303032",
":  c #303133",
">  c #313133",
",  c #323232",
"<  c gray20",
"1  c #313234",
"2  c #323234",
"3  c #323335",
"4  c #333335",
"5  c #333436",
"6  c #343434",
"7  c #353535",
"8  c #343436",
"9  c #343537",
"0  c #353537",
"q  c gray21",
"w  c #373737",
"e  c #343338",
"r  c #353638",
"t  c #363739",
"y  c #37383A",
"u  c gray22",
"i  c #393939",
"p  c #38383A",
"a  c #38393B",
"s  c gray23",
"d  c #3A3B3D",
"f  c #3B3B3D",
"g  c #3C3C3C",
"h  c #3F3F3F",
"j  c #3F3F41",
"k  c gray25",
"l  c gray26",
"z  c #434343",
"x  c #424345",
"c  c gray27",
"v  c #444446",
"b  c #454547",
"n  c #464646",
"m  c #464648",
"M  c #474749",
"N  c #47484A",
"B  c #484848",
"V  c #494949",
"C  c #48484A",
"Z  c #48494B",
"A  c #494A4C",
"S  c #4A494E",
"D  c #4C4C4C",
"F  c #4E4E4E",
"G  c #4D4E50",
"H  c #4E4E50",
"J  c #4F5052",
"K  c #555555",
"L  c #545557",
"P  c #565656",
"I  c gray34",
"U  c #555658",
"Y  c #57585A",
"T  c gray35",
"R  c #58585A",
"E  c #58595B",
"W  c #5A5A5A",
"Q  c #59585D",
"!  c #595A5C",
"~  c #5A5B5D",
"^  c #5B5C5E",
"/  c #5D5D5D",
"(  c #5C5D5F",
")  c #5D5D5F",
"_  c gray37",
"`  c #5F5F5F",
"'  c #5C5B60",
"]  c #5D5E60",
"[  c #5E5F61",
"{  c #5F5F61",
"}  c #5E5D62",
"|  c #5F5E63",
" . c #605F64",
".. c #5F6062",
"X. c #606163",
"o. c #616163",
"O. c gray39",
"+. c #616065",
"@. c #616264",
"#. c #626264",
"$. c #626365",
"%. c #636365",
"&. c #626166",
"*. c #636466",
"=. c #646466",
"-. c #646567",
";. c gray40",
":. c #646368",
">. c #656469",
",. c #656668",
"<. c #666769",
"1. c #67666B",
"2. c #68676C",
"3. c #67686A",
"4. c #686868",
"5. c #68696B",
"6. c #69696B",
"7. c #696A6C",
"8. c #6A6B6D",
"9. c #6B6B6D",
"0. c #6B6A6F",
"q. c #6B6C6E",
"w. c #6C6C6C",
"e. c #6C6C6E",
"r. c #6C6D6F",
"t. c #6D6D6F",
"y. c #6F6F6F",
"u. c #6D6E70",
"i. c #6E6E70",
"p. c #6E6F71",
"a. c #6F6F71",
"s. c #6F7072",
"d. c #707072",
"f. c #707173",
"g. c #717173",
"h. c #717274",
"j. c #727274",
"k. c #727375",
"l. c #737375",
"z. c #737476",
"x. c gray46",
"c. c #747577",
"v. c #757678",
"b. c #767678",
"n. c #767779",
"m. c #77787A",
"M. c gray47",
"N. c #78787A",
"B. c #78797B",
"V. c gray48",
"C. c #7B7B7D",
"Z. c #7C7C7C",
"A. c gray49",
"S. c #7C7D7F",
"D. c #7E7E7E",
"F. c gray50",
"G. c #7D7E80",
"H. c #7E7E80",
"J. c #7E7F81",
"K. c #7F8082",
"L. c #808080",
"P. c #818181",
"I. c #808183",
"U. c gray51",
"Y. c #838383",
"T. c gray52",
"R. c #868686",
"E. c gray53",
"W. c #898989",
/* pixels */
"< < < < < < < < < $ < < q < . q q , $ < q , $ q , q , , , q ",
"< < < < < < < < q < < < < $ < < q , , , q , , q , , q , , , ",
"< < < < < < < < q < < q < $ q $ , q , , q , , q , , , , , q ",
"< < < < < < < < < < < q $ < h q , q q , , , , $ q , q , , , ",
"< < < < < < < < < < < q $ q D c $ , , q , , , < , , , q , , ",
"< < < < < < < < q < < $ < l T P s , $ , q q , , q , , , q , ",
"< < < < < < < < q < < $ s P ` ` D q $ , , , q , , q , q , q ",
"< < < < < < < < < $ q < c O.` T ` z , q , , $ $ , , , , , , ",
", 6 , 6 , 6 , 6 1 y * d ' $.~ ..Q Q e $ g 1 , q , 6 , 6 , 6 ",
"6 , 6 , 6 , 6 , 5 * y H ,.$.! ~  .} S ; ; 4 , , 6 , 6 , 6 , ",
", 6 , 6 , 6 , 6 5 % x -.7...! ~  .>.>.g   q , , , 6 , 6 , 6 ",
"6 , 6 , 6 , 6 , < y L q.<...' ]  .:.2.H ; , q 4 6 , 6 , 6 , ",
", 6 , 6 , 6 , 6 + J <.q.$.....]  .:.2.>.c $ q , , 6 , 6 , 6 ",
"6 , 6 , 6 , 6 , y $.z.<.,.$.~ ~  .:.:.a.` q , $ 6 , 6 , 6 , ",
", 6 , 6 , 6 , , U s.z.<.<.$.~ ~  .:.:.a.a.F , , , 6 , 6 , 6 ",
"6 , 6 , , 5 , , z.z.s.<.,...~ .. . .1.t.N.O.q 6 6 , 6 , 6 , ",
"- , w # w , q O.n.z.q.7.$.$.~ ~ ..$.<.s.s.z...+ , , q $ $ 6 ",
"w , # w w # V x.n.h.u.<.,.....~ ..$.<.q.z.n.7.x , $ , q q , ",
"w , # w , 6 ;.P.n.z.u.q.$.....~ ..$.<.s.z.B.n.$., , q , 6 q ",
"- - 6 # # F D.A.n.z.u.<.<...~ ~ ..$.<.s.s.n.I.n.n , q $ $ q ",
"- $ s $ k w.W.M.n.z.q.7.$...~ ~ ..$.,.s.s.z.K.K.y.s - , , , ",
"w $ w 6 ` D.T.V.n.h.u.<.<.....~ ~ $.<.q.s.s.B.G.T.P q , , q ",
"w , < s V.R.P.A.n.z.u.q.$.$...~ ..,.<.q.h.z.K.B.T.V.s $ $ s ",
"# w . s T.R.P.V.n.z.u.<.,...~ ~ ] <.<.q.z.n.K.K.Y.W., q , , ",
", 6 , - k ;.T.D.n.M.s.q.$...~ ~ ..$.7.w.l.b.C.H.a.h , , q , ",
"< , s , # w D K p.s.s.q.q...~ E O...-.p.l.t.R c 4 $ q , , 6 ",
"w , # , w , , s + 5 d x Z Z A Z C C c j p 4 1 4 , q q $ $ q ",
"< w , , q , # , 5 5 5 5 5 5 * * ; % < 1 ; 1 4 4 , < $ q q $ ",
"# w 6 , q , # q 5 5 5 1 5 5 5 r e e e 1 q 1 4 4 4 , $ q q $ ",
"w , # , w , , w * 5 5 5 5 5 5 1 < q 1 < ; ; 1 1 , q q $ $ q "
};
