/* XPM */
static char *cylinder[] = {
/* columns rows colors chars-per-pixel */
"30 30 136 2 ",
"   c gray17",
".  c #2C2C2C",
"X  c #2D2D2D",
"o  c gray18",
"O  c #2F2F2F",
"+  c gray19",
"@  c #313131",
"#  c #303133",
"$  c #323232",
"%  c gray20",
"&  c #323433",
"*  c #313234",
"=  c #323234",
"-  c #323335",
";  c #333534",
":  c #333436",
">  c #343434",
",  c #353535",
"<  c #343436",
"1  c #343537",
"2  c gray21",
"3  c #373737",
"4  c #353638",
"5  c gray22",
"6  c #393939",
"7  c #3A3A3A",
"8  c #3A3B3D",
"9  c #3C3C3C",
"0  c #3F3F3F",
"q  c #3F4042",
"w  c gray25",
"e  c #404143",
"r  c #424345",
"t  c #444547",
"y  c #464646",
"u  c #454648",
"i  c #464749",
"p  c #47484A",
"a  c #484848",
"s  c #48494B",
"d  c #4B4B4B",
"f  c #4A4B4D",
"g  c #4C4C4C",
"h  c gray30",
"j  c #4E4E4E",
"k  c gray31",
"l  c #505050",
"z  c #515151",
"x  c #535353",
"c  c #555555",
"v  c #565656",
"b  c gray34",
"n  c #565759",
"m  c #57585A",
"M  c #585858",
"N  c #58595B",
"B  c #5A5A5A",
"V  c #595A5C",
"C  c #5A5B5D",
"Z  c #5B5C5E",
"A  c gray36",
"S  c #5D5D5D",
"D  c #5C5D5F",
"F  c gray37",
"G  c #5F5F5F",
"H  c #5D5E60",
"J  c #5E5F61",
"K  c #5F6062",
"L  c #606060",
"P  c gray38",
"I  c #606163",
"U  c #626262",
"Y  c gray39",
"T  c #626365",
"R  c #636466",
"E  c #646464",
"W  c #656565",
"Q  c #646567",
"!  c gray40",
"~  c #676767",
"^  c #656668",
"/  c #666769",
"(  c #67686A",
")  c #686868",
"_  c DimGray",
"`  c #68696B",
"'  c #6A6A6A",
"]  c gray42",
"[  c #696A6C",
"{  c #6A6B6D",
"}  c #6B6C6E",
"|  c #6D6D6D",
" . c #6C6D6F",
".. c #6F6F6F",
"X. c #6D6E70",
"o. c #6E6F71",
"O. c #6F7072",
"+. c gray44",
"@. c #717171",
"#. c #727272",
"$. c gray45",
"%. c #717274",
"&. c #727375",
"*. c #737476",
"=. c #747474",
"-. c gray46",
";. c #747476",
":. c #747577",
">. c #767676",
",. c #777777",
"<. c gray47",
"1. c #797979",
"2. c #78797B",
"3. c gray48",
"4. c #7B7B7B",
"5. c #78797D",
"6. c #797A7C",
"7. c #7B7C7E",
"8. c #7C7C7C",
"9. c gray49",
"0. c #7E7E7E",
"q. c gray50",
"w. c #7D7E80",
"e. c #7E7F81",
"r. c #7D7E82",
"t. c #808080",
"y. c #818181",
"u. c #838383",
"i. c gray52",
"p. c #848486",
"a. c #848589",
"s. c #888888",
"d. c #898989",
"f. c gray54",
"g. c #898A8C",
"h. c #8D8D8D",
/* pixels */
"@ > @ > @ 5 @ > > > > > > > > > > @ @ > > @ @ > > @ > > > > ",
"O > @ 5 @ > O O > > > > @ @ @ @ > % > > > > > @ @ @ 5 % @ 5 ",
"> > > > > > > > @ @ @ > > > > 5 O @ > @ % > > O 5 > > @ @ > ",
"> @ @ O 5 w k x ) ) ..@.-.-.4.4.4.4.@.) ~ F B k 5 O O 5 5 O ",
"> > > 5 F ~ @.4.-.-.-.-.-.@.-.@.=.+.@.-.,.-.-.-.@.c > @ O > ",
"@ > @ @ P F x k F P P ) ..@.-.-.@...) ~ L c x x B c > > > > ",
"O > > 5 d.d.4.4.~ P F c x a a y a k c F ~ ] -.0.0.$.3 O O 5 ",
"> > O @ d.s.4.4.@.@.) ~ P F F F F E ) ) ] =.5.0.s.-.% > > > ",
"> & & - g.a.r.5.*.O.[ Q K J V m J J I ` o.&.4.w.p.;.= < < = ",
"& & & - g.a.r.5.&.o.[ Q K J V m J J ^ [ o.&.4.r.p.;.= < < = ",
"> 1 & - g.a.r.5.&.o.[ R K H V m J J I ` o.&.5.0.p.;.= < < = ",
"; 1 & - g.a.r.5.&.o.[ ~ K J V m J K ^ ` o.&.5.r.p.;.= < < = ",
"; ; & & g.a.r.5.&.o.[ Q K J V m J J I ` o.&.4.r.p.;.= < < = ",
"; ; & & g.a.r.5.&.o.[ Q I J V m J J ^ [ o.&.4.0.p.;.= < < = ",
"& & & & g.a.r.5.&.o.[ Q K H V m J J I `  .&.5.r.p.;.= < < = ",
": & & : g.a.r.5.&.o.[ Q K J V m J K ^ ( o.;.2.w.p.;.= < < = ",
"1 1 & : g.a.r.5.&.o.[ Q K J V m J J R ` o.*.5.r.p.;.= < < = ",
"; ; & & g.a.r.5.&.o.[ Q K J V m J J R ` o.&.4.r.p.;.= < < = ",
"; ; & & g.a.r.5.&.o.[ Q K J V m J J R ` ..*.2.r.p.;.= < < = ",
"; ; & & g.a.r.5.&.o.[ Q I J V m H J R `  .*.5.0.p.;.= < < = ",
"& & - * g.a.r.5.&.o.[ Q J H V m K K R `  .*.5.r.p.;.- < > - ",
"& & & : g.a.r.5.&.o.[ Q K J V m D K R ` o.*.5.0.p.;.= < 4 @ ",
": 1 & : g.a.r.5.&.o.[ Q I J V m K K R ( } *.4.w.p.;.@ < < - ",
"; 1 & & g.a.r.5.&.o.[ Q K J V m D K R ( O.*.5.w.p.;.- < < - ",
"& & > O h.u.t.4.@.o.( R J J H H K K R (  .&.5.e.u.$.@ > > @ ",
"& O O @ 0.t.y.4.*.O.} ^ J J V V D K R } o.*.5.5.d.O.> & > > ",
"> > > 5 k B ] ,.o.o.} ^ K H N m D K R ( o.*.*.*.l 0 O % > O ",
"@ O O > . > > > q t t i p s s p i i t t q 8 : * >   > > > > ",
"> @ @ 7 O > @ O # - & : 4 4 & : & * * * : : : - 5 @ 5 @ @ 5 ",
"> 3 > O > > > 5 - - - - - - # * : & & - : : : - O > @ > > @ "
};
