/* XPM */
static char *light[] = {
/* columns rows colors chars-per-pixel */
"30 30 93 2 ",
"   c gray14",
".  c #282828",
"X  c gray16",
"o  c #2A2A2A",
"O  c gray17",
"+  c #2C2C2C",
"@  c #2D2D2D",
"#  c gray18",
"$  c #2F2F2F",
"%  c gray19",
"&  c #313131",
"*  c #323232",
"=  c gray20",
"-  c #343434",
";  c #353535",
":  c gray21",
">  c #373737",
",  c gray22",
"<  c #393939",
"1  c #3A3A3A",
"2  c gray23",
"3  c #3C3C3C",
"4  c gray24",
"5  c #3E3E3E",
"6  c #3F3F3F",
"7  c gray25",
"8  c #414141",
"9  c gray26",
"0  c #434343",
"q  c #484848",
"w  c #494949",
"e  c gray29",
"r  c #4C4C4C",
"t  c gray30",
"y  c #4E4E4E",
"u  c #505050",
"i  c #535353",
"p  c gray33",
"a  c #565656",
"s  c gray34",
"d  c #585858",
"f  c gray35",
"g  c #5B5B5B",
"h  c gray36",
"j  c gray37",
"k  c #5F5F5F",
"l  c #606060",
"z  c gray38",
"x  c #626262",
"c  c gray39",
"v  c #646464",
"b  c #656565",
"n  c gray40",
"m  c #676767",
"M  c #686868",
"N  c #6A6A6A",
"B  c gray42",
"V  c #6C6C6C",
"C  c #6F6F6F",
"Z  c #717171",
"A  c #777777",
"S  c gray47",
"D  c gray49",
"F  c #818181",
"G  c gray52",
"H  c #868686",
"J  c #888888",
"K  c gray54",
"L  c #8B8B8B",
"P  c gray55",
"I  c #8D8D8D",
"U  c #8E8E8E",
"Y  c gray56",
"T  c #909090",
"R  c gray57",
"E  c #929292",
"W  c #939393",
"Q  c gray58",
"!  c #959595",
"~  c gray59",
"^  c #979797",
"/  c #989898",
"(  c gray60",
")  c #9A9A9A",
"_  c #9B9B9B",
"`  c gray61",
"'  c #9D9D9D",
"]  c gray62",
"[  c #9F9F9F",
"{  c #A0A0A0",
"}  c gray63",
"|  c #A2A2A2",
" . c gray64",
/* pixels */
"= = = = = = = = : : = : # = , = : = : = # : # : = = = = = = ",
"= = = = = = = = # # : # = , # = # : # , O = = = = = = = = = ",
"= = = = = = = = # , = = : = : : : = = : : # = : = = = = = = ",
"= = = = = = = = : # : : # # : = , # , O : = , : = = = = = = ",
"= = = = = = = = : O : # = : # = # # # , # = : # = = = = = = ",
"= = = = = = = = 8 z = O , = , # : 4 = H r , = : = = = = = = ",
"= = = = = = = = 0 K r = , O 8 = # = r U e = O = = = = = = = ",
"= = = = = = = = = C D : O 4 O : = : F h O = , = = = = = = = ",
": = : O : : , # = 4 m 4   = : = = : , = # : : # = = = = = : ",
": = : : : # = : = # = # e h z m h , O : = = : , = , # : : # ",
": = # = = # = : , = : d K ! ! _ _ T h = O : = # : = = = = = ",
"# : : : # = = = # # z K ' _ ' ! T  .T m = # = : # : # : = # ",
"# = O : , , : = = 4 U  ._ _ ' _ ' !  .K 4 # , O : # , = = : ",
"4 , = : : O : : = i _ ! T _ ! ! ! ! ! ! p = # , = = # = = # ",
"O = : # , O , # : z _ ! _ ' ! _ _ ' T ' C = , ! ! _ = : : = ",
": = # , U  .T : = m _ ' _ ! _ _ ! ! _ ' h , O : : : = = = = ",
"= = = = = = = = : p _  .T  ._ ! _ T ' _ p : = : = = = = = = ",
"= = = = = = = = : : _ T ! ! ! ' _ !  .T , = : : = = = = = = ",
"= = = = = = = = : = d _ ' _ _ ' ' _ U h # # : = = = = = = = ",
"= = = = = = = = # 4 O C H ' _ ! ' K N O 4 = = = = = = = = = ",
"= = = = = = = = = = =   8 h z z p 4 = # : # = : = = = = = = ",
"= = = = = = = = : O 4 0 O # = = , # = Z 4 = # : = = = = = = ",
"= = = = = = = = # : d A 4 : : : : # : S m : = = = = = = = = ",
"= = = = = = = = = 4 T p = # = : : : O e ! 4 = = = = = = = = ",
"= = = = = = = = = h A : # = = # : = # , i 8 : # = = = = = = ",
"= = = = = = = = = = 4 O : : = = = # = = , = # = = = = = = = ",
"= = = = = = = = : # = = = # # : : : : = : # = : = = = = = = ",
"= = = = = = = = = = = : = : : = = # = # : # : = = = = = = = ",
"= = = = = = = = = = = : = = : # = # = # : = : # = = = = = = ",
"= = = = = = = = : # = : : O # , = = : = : # = : = = = = = = "
};
