/* XPM */
static char *_feef0333c584102d974111f6957e1b8[] = {
/* columns rows colors chars-per-pixel */
"114 34 179 2 ",
"   c #16212F",
".  c #172230",
"X  c #182230",
"o  c #182331",
"O  c #192432",
"+  c #1A2533",
"@  c #1B2533",
"#  c #1B2634",
"$  c #1C2735",
"%  c #1D2735",
"&  c #1D2836",
"*  c #1E2937",
"=  c #1F2937",
"-  c #1F2A38",
";  c #202B39",
":  c #222D3B",
">  c #232D3B",
",  c #232E3B",
"<  c #232E3C",
"1  c #242E3C",
"2  c #242F3D",
"3  c #25303E",
"4  c #26303E",
"5  c #26313F",
"6  c #273140",
"7  c #293341",
"8  c #293442",
"9  c #2C3744",
"0  c #2F3947",
"q  c #2F3A48",
"w  c #303A48",
"e  c #303B49",
"r  c #323C4B",
"t  c #323D4B",
"y  c #333E4C",
"u  c #353F4E",
"i  c #374250",
"p  c #384352",
"a  c #394452",
"s  c #3A4552",
"d  c #3A4554",
"f  c #3B4654",
"g  c #3B4655",
"h  c #3D4755",
"j  c #3C4756",
"k  c #3D4857",
"l  c #3E4958",
"z  c #404B5A",
"x  c #404B5B",
"c  c #414C59",
"v  c #414C5B",
"b  c #434E5D",
"n  c #434E5E",
"m  c #444F5D",
"M  c #444F5E",
"N  c #45505D",
"B  c #45505F",
"V  c #46505E",
"C  c #455060",
"Z  c #455160",
"A  c #475362",
"S  c #495361",
"D  c #485363",
"F  c #4B5563",
"G  c #495464",
"H  c #495565",
"J  c #4A5565",
"K  c #4B5666",
"L  c #4D5869",
"P  c #4D5969",
"I  c #4E5969",
"U  c #4E5A6A",
"Y  c #4F5B6B",
"T  c #515C69",
"R  c #505B6C",
"E  c #505C6C",
"W  c #515C6D",
"Q  c #515D6E",
"!  c #535F70",
"~  c #55606D",
"^  c #546071",
"/  c #556171",
"(  c #566273",
")  c #596371",
"_  c #596471",
"`  c #5A6572",
"'  c #5B6573",
"]  c #586475",
"[  c #596576",
"{  c #5A6678",
"}  c #5C6879",
"|  c #5C687A",
" . c #5C697A",
".. c #5D697B",
"X. c #5E6B7C",
"o. c #5F6C7D",
"O. c #5F6D7F",
"+. c #636D7A",
"@. c #616D7F",
"#. c #616E7F",
"$. c #67717E",
"%. c #626E80",
"&. c #626F81",
"*. c #646F82",
"=. c #657283",
"-. c #647184",
";. c #657285",
":. c #667386",
">. c #6E7885",
",. c #697688",
"<. c #697789",
"1. c #6A768A",
"2. c #6A778A",
"3. c #6A788B",
"4. c #6C7A8B",
"5. c #6B798C",
"6. c #6E7C8F",
"7. c #717B88",
"8. c #737D8A",
"9. c #6F7E91",
"0. c #707C90",
"q. c #727F94",
"w. c #75808D",
"e. c #78828F",
"r. c #738194",
"t. c #748295",
"y. c #748395",
"u. c #758397",
"i. c #758497",
"p. c #778498",
"a. c #778598",
"s. c #778599",
"d. c #788599",
"f. c #78879B",
"g. c #7A879B",
"h. c #78889C",
"j. c #7A889C",
"k. c #7B889C",
"l. c #7B899D",
"z. c #7C8A9F",
"x. c #7C8B9F",
"c. c #7D8B9F",
"v. c #7D8BA0",
"b. c #7E8BA1",
"n. c #7F8CA2",
"m. c #7E8DA2",
"M. c #7F8EA2",
"N. c #7F8EA4",
"B. c #838D9A",
"V. c #86909D",
"C. c #86919D",
"Z. c #87919E",
"A. c #808FA3",
"S. c #818FA3",
"D. c #8090A5",
"F. c #8190A5",
"G. c #8291A5",
"H. c #8291A6",
"J. c #8D97A4",
"K. c #8493A8",
"L. c #9AA4B1",
"P. c #9BA6B2",
"I. c #9CA6B3",
"U. c #9DA8B4",
"Y. c #A1ABB8",
"T. c #ABB5C1",
"R. c #ACB6C3",
"E. c #B2BCC8",
"W. c #B3BDC9",
"Q. c #B4BECA",
"!. c #B5BFCB",
"~. c #B7C1CD",
"^. c #B7C2CE",
"/. c #BBC5D1",
"(. c #BCC6D2",
"). c #BEC8D4",
"_. c #C0CAD6",
"`. c #C3CDD9",
"'. c #C5CFDB",
/* pixels */
"                                                                                                                                                                                                                                    ",
"                                                                                                                                                                                                                                    ",
"                                                              .                       .                       .                                                                                                                     ",
"                                      .                       .                       .                       .                                                                                                                     ",
"              + $ $ $ $ # $ $ $ # # * # # * # # # # # # * # # # # * # # # # * # # # $ $ $ $ # # # # # # $ $ # # $ $ # # # # $ $ # * # # # * # # * # # * # # * # * # # * # * # # # * # # # * # # * # # * # # * # * + * o             ",
"        . +.T.'.`.`.`.`.`.`.`.`.`.`.`.`.`.`.`.`.`.`.`.`.`.`.`.`.`.`.`.`.`.`.`.`.`.`.`.`.`.`.`.`.`.`.`.`.`.`.`.`.`.`.`.`.`.`.`.`.`.`.`.`.`.`.`.`.`.`.`.`.`.`.`.`.`.`.`.`.`.`.`.`.`.`.`.`.`.`.`.`.`.`.`.`.`.`.`.`.`.`.`.).L.s         ",
"        B.Y.h +                         .       .       .       .           .           . .     .       .       . .         . .                                                                                       : ) /.M       ",
"      c E.*                                     .                                               .       .                                                                                                                 F E.      ",
"      7.8.                                                                                                                                                                                                                  Q.0     ",
"      Z.`                                                                                                                                                                                                                   L.N     ",
"      Z.)                                                                                                                                                                                                                   L.B     ",
"      Z.)                                                                                                                                                                                                                   L.B     ",
"      Z.)                                                                                         .                                           .                                                                             L.B     ",
"      Z.)                                                               A z.m       ) x.*   . . q.|     . l v.f.q.) .   C z.z.<.B   # m.d.s.O.1   : z.s.s.s.M                                                               P.N     ",
"      Z.)                                                               K F.<.    . i.K.* .   d b.m.& .   M t.. t N.p . D 0.+ K m.: * K.5 5 9.]   2 K.*                                                                     P.N     ",
"      Z.)                                                               K ,.N.2   d :.K.* .   -.U f.H   . M t.. . s.M   K 0.. e b.# # K.1   O.%.  2 K.*                                                                     L.N     ",
"      Z.)                                                               K O.<.U . %.x K.* . 1 b.* ^ 9..   M u.l X.t.* . D g.{ 9.h   $ K.v W d.p   2 K.| ] E .                                                               L.V     ",
"      Z.)                                                               K O.K 9.$ s.# K.* . R %.. 6 F.q   M b.,.F.7     D u.U 0. .o $ K.<.b.K     : K.A M k                                                                 L.V     ",
"      Z.)                                                               K O.* N.! | . K.; . u.d.s.s.b.|   M t.  %.1..   D 0.. * z.v $ K.5 M z.:   1 K.*                                                                     L.V     ",
"      Z.)                                                               K O.. -.F.t o K.* a t.. . . l b.+ M t.  * g.U . D 9.. 6 A.v $ K.5   -.,.. : K.;                                                                     L.N     ",
"      Z.)                                                               K %.  u !   . K.* *.R       . z.M M t.    h F.e K F.f.s.@.o $ K.1   > z.U : F.i.t.t.)                                                               P.V     ",
"      Z.)                                                               o +     . . o $ o $ o         # + o $       $ O o $ $ .       * o     + * . * $ * * +                                                               L.N     ",
"      Z.)                                                                                                                   . .         .                                                                                   L.B     ",
"      Z.)                                                                                                                                                                                                                   L.N     ",
"      Z.)                                                                                                                                                                                                                   L.B     ",
"      Z.`                                                                                                                                                                                                                   P.B     ",
"      >.e.                    .               .               .                                                                                                                                                             ~.9     ",
"      s ~.:                   .               .               .                                                                                                                                                           T R.      ",
"        e.T.F 2 # # # # * # # # # # # # * # # # # # # # * # # # $ $ $ $ $ $ $ $ $ $ $ $ $ $ $ $ $ $ $ $ $ $ $ $ $ $ $ $ $ $ $ $ $ $ $ $ $ $ $ $ $ $ $ $ $ $ $ $ $ $ $ $ $ $ $ $ $ $ $ $ $ $ $ $ % % % % % + * + * + * 0 $.(.k       ",
"          ~ U.).`.`.`.`.`.`.`.`.`.`.`.`.`.`.`.`.`.`.`.`.`.`.`.`.`.`.`.`.`.`.`.`.`.`.`.`.`.`.`.`.`.`.`.`.`.`.`.`.`.`.`.`.`.`.`.`.`.`.`.`.`.`.`.`.`.`.`.`.`.`.`.`.`.`.`.`.`.`.`.`.`.`.`.`.`.`.`.`.`.`.`.`.`.`.`.`.`.`.`.Q.J.e         ",
"                .       .       .       .       .       .                                                                                                                                                                           ",
"                                .               .                                                                                                                                                                                   ",
"                                                                                                                                                                                                                                    ",
"                                                                                                                                                                                                                                    "
};
