/* XPM */
static char *plane[] = {
/* columns rows colors chars-per-pixel */
"30 30 104 2 ",
"   c gray17",
".  c #2C2C2C",
"X  c #2D2D2D",
"o  c gray18",
"O  c #2F2F2F",
"+  c #2F2F31",
"@  c gray19",
"#  c #313131",
"$  c #323232",
"%  c gray20",
"&  c #333335",
"*  c #343434",
"=  c #353535",
"-  c #353537",
";  c gray21",
":  c #373737",
">  c #363638",
",  c gray22",
"<  c #393939",
"1  c #3A3A3A",
"2  c gray23",
"3  c #3B3B3D",
"4  c gray24",
"5  c #3D3D3F",
"6  c #3E3E3E",
"7  c #3F3F3F",
"8  c gray25",
"9  c #414141",
"0  c #414143",
"q  c gray26",
"w  c #434343",
"e  c #444444",
"r  c #454547",
"t  c #464646",
"y  c #494949",
"u  c #4B4B4B",
"i  c #4A4A4C",
"p  c gray30",
"a  c gray31",
"s  c #4E4E50",
"d  c #505050",
"f  c #525254",
"g  c gray33",
"h  c #555557",
"j  c #565656",
"k  c gray34",
"l  c gray35",
"z  c #58585A",
"x  c #59595B",
"c  c #5B5B5B",
"v  c #5A5A5C",
"b  c #5D5D5D",
"n  c #5F5F5F",
"m  c #5E5E60",
"M  c #606060",
"N  c gray38",
"B  c #606062",
"V  c #616163",
"C  c #636365",
"Z  c #656565",
"A  c #656567",
"S  c #666668",
"D  c #676769",
"F  c #68676C",
"G  c #69696B",
"H  c #6A6A6A",
"J  c gray42",
"K  c #69686D",
"L  c #6A696E",
"P  c #6B6A6F",
"I  c #6F6F6F",
"U  c #6C6B70",
"Y  c #6D6C71",
"T  c #6E6D72",
"R  c #6F6E73",
"E  c #706F74",
"W  c gray44",
"Q  c #717171",
"!  c gray45",
"~  c #717075",
"^  c #727176",
"/  c #737277",
"(  c #767676",
")  c #777777",
"_  c #747378",
"`  c #757479",
"'  c #76757A",
"]  c #77767B",
"[  c gray47",
"{  c #797979",
"}  c gray48",
"|  c #7B7B7B",
" . c #7C7C7C",
".. c gray49",
"X. c #7E7E7E",
"o. c gray50",
"O. c #808080",
"+. c #818181",
"@. c gray51",
"#. c #838383",
"$. c #848484",
"%. c #868686",
"&. c gray53",
"*. c #898989",
/* pixels */
"% % % % % % % % % % % % % % % % % % % % % % % % % % % % % % ",
"% % % % % % % % % % % % % % % % % % % % % % % % % % % % % % ",
"% % % % % % % % % % % % % % % % % % % % % % % % % % % % % % ",
"% % % % % % % % % % % % % % % % % % % % % % % % % % % % % % ",
"% % % % % % % % % % % % % % % % % % % % % % % % % % % % % % ",
"% % % % % % % % % % % % % % % % % % % % % % % % % % % % % % ",
"% % % % % % % % % % % % % % % % % % % % % % % % % % % % % % ",
"% % % % % % % % % % % % % % % % % % % % % % % % % % % % % % ",
"% * % % * * % % = = $ $ $ = = = % % @ % % % % % * % @ % * @ ",
"* = * % % @ @ % % % % % $ $ + % = & % @ % % = * * @ * * = * ",
"@ % % % @ @ % % % % % $ = 7 r u , = = & * & & % * * * @ @ * ",
"% * * * % % * = + = 8 s v B C A C z i 5 = $ & & @ * * * % * ",
"= = * * * = , , h v C D G F C B D D D A m f r 2 @ * * % % @ ",
", % @ * q g A W P P K K G P G U K K K K P G K F b d 2 % @ , ",
". * w l H Q W H T R E / ^ R R T U U U R E E ^ T ( M t , * 8 ",
"= @ . * u M Q ' ` / / / / ` ` ' ' ` ` / / ` ^ Q p 8 * * @ . ",
"* @ @ * % % 8 g ) } | ) ) } | ) ) ) ) | | W l 2 % % % % % % ",
"= * * * % o % < q l ( +.+.| | X.+.$.@.W g 8 @ @ % % % % % % ",
"* % @ % * % @ . . % 7 l Q &.&.+.&.! l 8 , * * @ % % % % % % ",
"% % % @ % = = % 2 * . @ w B ) $.d q % o @ @ * , % % % % % % ",
"% , = @ o * = *   % , = @ @ % * . o % = * @ @ @ % % % % % % ",
". * = % @ % % % % % @ @ * , = @ 2 * * % * * * = % % % % % % ",
"o @ * % @ % % % * * * @ @ % * % @ * , * @ @ * , % % % % % % ",
", = @ % * % % % * * * % * * * o @ * * * * , * o % % % % % % ",
"* % % % % % % % % % % % % % % % * % % % % % % % % % % % % % ",
"* % % % % % % % % % % % % % % % * * % % % % % % % % % % % % ",
"% % % % % % % % % % % % % % % % % % % % % % % % % % % % % % ",
"% % % % % % % % % % % % % % % % % % % % % % % % % % % % % % ",
"% % % % % % % % % % % % % % % % % % % % % % % % % % % % % % ",
"% % % % % % % % % % % % % % % % % % % % % % % % % % % % % % "
};
