/* XPM */
static char *sphere[] = {
/* columns rows colors chars-per-pixel */
"30 30 133 2 ",
"   c #2D2D2D",
".  c #2D2D2F",
"X  c gray18",
"o  c #2F2F2F",
"O  c #2E2E30",
"+  c gray19",
"@  c #313131",
"#  c #303032",
"$  c #313133",
"%  c #323232",
"&  c gray20",
"*  c #323234",
"=  c #333335",
"-  c #343434",
";  c #353535",
":  c #343436",
">  c #353537",
",  c gray21",
"<  c #373737",
"1  c #363638",
"2  c #373739",
"3  c #37383A",
"4  c gray22",
"5  c #393939",
"6  c #38383A",
"7  c #39393B",
"8  c #3A3A3A",
"9  c gray23",
"0  c #3B3B3D",
"q  c #3C3C3E",
"w  c #3F3F3F",
"e  c #3E3E40",
"r  c #3F3F41",
"t  c #414141",
"y  c gray26",
"u  c #434343",
"i  c #424244",
"p  c #434345",
"a  c gray27",
"s  c #444446",
"d  c #464646",
"f  c #454449",
"g  c #464648",
"h  c #484848",
"j  c #48484A",
"k  c #494A4C",
"l  c #4C4C4C",
"z  c gray31",
"x  c #4D4C51",
"c  c #505050",
"v  c gray32",
"b  c #525254",
"n  c #535355",
"m  c #545456",
"M  c gray34",
"N  c #57585A",
"B  c #585858",
"V  c gray35",
"C  c #58585A",
"Z  c #5B5B5B",
"A  c #59585D",
"S  c #5A5B5D",
"D  c #5B5B5D",
"F  c gray36",
"G  c #5C5C5E",
"H  c #5D5D5F",
"J  c gray37",
"K  c #5C5B60",
"L  c #5E5F61",
"P  c #5F5F61",
"I  c #5F5E63",
"U  c #5F6062",
"Y  c gray38",
"T  c #606163",
"R  c #616163",
"E  c #626262",
"W  c gray39",
"Q  c #616065",
"!  c #616264",
"~  c #626264",
"^  c #626365",
"/  c #636365",
"(  c #626166",
")  c #636267",
"_  c #636466",
"`  c #646464",
"'  c #656565",
"]  c #646567",
"[  c #676767",
"{  c #646368",
"}  c #656668",
"|  c #666769",
" . c #66656A",
".. c #67686A",
"X. c #68696B",
"o. c #6A6A6A",
"O. c #69686D",
"+. c #696A6C",
"@. c #6A6B6D",
"#. c #6A696E",
"$. c #6B6A6F",
"%. c #6B6C6E",
"&. c #6D6D6D",
"*. c #6C6D6F",
"=. c #6C6B70",
"-. c #6D6E70",
";. c #6E6F71",
":. c #6F7072",
">. c #707173",
",. c #717274",
"<. c #727375",
"1. c #737476",
"2. c #747577",
"3. c #757678",
"4. c #767779",
"5. c #77787A",
"6. c #78797B",
"7. c #797A7C",
"8. c #7A7B7D",
"9. c #7B7C7E",
"0. c #7C7D7F",
"q. c #7D7E80",
"w. c #7E7F81",
"e. c #7F8082",
"r. c #808183",
"t. c #818284",
"y. c #828385",
"u. c #838486",
"i. c #848587",
"p. c #858688",
"a. c #868789",
"s. c #898A8C",
"d. c #8B8C8E",
/* pixels */
"- - & & & & - & & & & & & & & & + + % ; + + % ; ; + ; % ; + ",
"- & o & & & & & & & - - & & o o 5 & ; & ; % + % % ; + ; % ; ",
"& & o & & & & & - * & + o + O & ; + + % ; ; + + ; % ; % ; + ",
"& o & - - & & & & & * 3 0 r p g w 5 ; ; % % ; ; + ; + ; % ; ",
"& o & - - - & & O 0 g b C D G F J M c u 4 - - - ; % ; + ; % ",
"& & - - & o & 4 f x A Q { { { { J ` ` F c y < o + ; % ; + ; ",
"- & & & & & 9 h K I ( { ) ( {  .J ` [ } ` M g - ; + ; + ; + ",
"& & o & & - h F I ) O.$.$.O.$.=.&.+.` ` ^ ` V l % ; % ; % ; ",
"- = - + O f K I ( ..+.*.-.-.:.>.,.:.*.+...' U U f * * 3 * 3 ",
"= - - * 0 x I ) } $.*.:.>.,.1.2.1.,.:.*.+...^ Y b 0 O : # * ",
"& = & - g A ) $.+.*.:.1.4.4.4.8.6.3.1.:.*.*.^ ^ ( h O * * * ",
"& - O 3 b Q ) #.*.:.1.4.6.8.8.e.8.7.3.1.:.*...^ ( m * - 3 * ",
"& & o 0 N { ) $.-.>.3.6.8.e.e.y.e.q.7.4.1.-.$...Y L 4 3 > 3 ",
"& & + r D ) ) O.-.,.4.8.e.r.y.p.y.r.0.6.1.:.*...( Y 9 & # 3 ",
"& o & y F  .( $.:.1.6.0.r.y.a.s.y.y.q.7.3.,.*...( ( p * * - ",
"& o & g F  . .*.>.1.7.e.y.a.s.d.p.y.e.8.4.,.*.+.^ L p > - - ",
"& - & 9 F Y F *.,.1.4.8.e.y.y.a.p.e.8.6.1.:.+.} Y ` < & & & ",
"& - & 4 V ' ` o.:.>.4.7.e.r.r.y.e.e.8.4.2.>.*...Y F < - - - ",
"& & o = z ` [ ' *.-.1.4.6.e.0.e.8.8.6.2.>.:.+...Y v - & & & ",
"& & & & u F [ ` *.*.:.1.4.4.7.8.4.4.2.:.*.+.} U J d & + & & ",
"; ; ; % 5 c Y ' ..+.*.:.2.2.2.3.1.2.:.*.+.....U v 4 & + & & ",
"+ + ; + ; y M ` ^ ..+.*.-.>.,.>.:.:.:.+...+.^ S w & & & & & ",
"+ + % ; ; , g M U ^  ...*.*.$.*.+.*.+.} ..^ N k - & & & & - ",
"; % + ; ; X ; l U U ^ ' ' +.+.+.^ ....Y U S k 3 & & & o & - ",
"; % % ; % % ; ; u n Y { ( Y ( { Y Y Y J v y - & & & & & & & ",
"% ; % % ; % % % & q h n G Q Y P ^ F v d < & & & & & & & & & ",
"; % ; % ; % % % * O o * 0 r p p < < < & + & & & & & & & & & ",
"% % ; % % % ; ; 3 3 * - : # # 3 & - & & o & & + & & & & & & ",
"% ; % ; % % % % + # # 3 : # # : & & - & + & - & & & & & & & ",
"% % % ; % ; ; % 6 : * : : 3 : = & - - & & & - - & & & & & & "
};
