/* XPM */
static char *sphere[] = {
/* columns rows colors chars-per-pixel */
"30 30 74 1 ",
"  c gray14",
". c gray15",
"X c #272727",
"o c gray16",
"O c #2A2A2A",
"+ c gray17",
"@ c #2C2C2C",
"# c #2D2D2D",
"$ c gray18",
"% c #2F2F2F",
"& c gray19",
"* c #313131",
"= c #323232",
"- c gray20",
"; c #343434",
": c #353535",
"> c gray21",
", c #373737",
"< c gray22",
"1 c #393939",
"2 c #3A3A3A",
"3 c gray23",
"4 c #3C3C3C",
"5 c gray24",
"6 c #3E3E3E",
"7 c #3F3F3F",
"8 c gray25",
"9 c gray26",
"0 c #434343",
"q c #444444",
"w c gray27",
"e c gray28",
"r c #484848",
"t c gray29",
"y c #4C4C4C",
"u c #4E4E4E",
"i c gray31",
"p c #505050",
"a c #515151",
"s c gray32",
"d c #5B5B5B",
"f c #5D5D5D",
"g c #5F5F5F",
"h c gray38",
"j c #626262",
"k c gray39",
"l c #646464",
"z c #656565",
"x c gray40",
"c c #676767",
"v c #686868",
"b c #6A6A6A",
"n c #6C6C6C",
"m c gray44",
"M c #717171",
"N c #727272",
"B c gray45",
"V c #747474",
"C c #767676",
"Z c #777777",
"A c #797979",
"S c #7B7B7B",
"D c #7C7C7C",
"F c gray49",
"G c #7E7E7E",
"H c #818181",
"J c gray51",
"K c #838383",
"L c gray53",
"P c gray54",
"I c #8B8B8B",
"U c #8D8D8D",
"Y c #8E8E8E",
"T c #909090",
/* pixels */
"--%-;;;%%;;----%%;;--%-%------",
"--------;---o%;-1%-;--18------",
"----;--;%--;1;;--o;;-;-o------",
"---;;----1-%8yyya71--;-;------",
"---;;-%-;;cUAcbbhJLb8-o;------",
";---%%;1hJh-;;o1;%1hAh7-------",
"----%-egG7%1-%1%%;%%enm;------",
"%-;;%1gJ%1;%-;%;;--1o7mC------",
"%----cA%---------;;-;-7md%-;;;",
";%-;-J11--------%%;-;%o8L7;--1",
";-;-chX;------------;;--gh-;;-",
"-;;%T;;--------------;;1-U;-;%",
"-%;7A;%;----------;;%%---Ge%%;",
"--1yc-%---------;;-;;----hr---",
";;-abo1%--------;1%%;;;;-br;;-",
";--ac;----------%1-----%-ca--;",
"%1;ac-----%--;;-o;-o-;-%;ce;-7",
"1 ;1A;-;------;1;--;;--;-J;;%%",
";%-;U1%----;;-%---;;--;11L1;;;",
"-7%-ch%;----;;--%-;--;-odh----",
";%--7L1o;;;;-;;--;%-;-%7L7-;;-",
"--;1%cb7%-;;%---;%-1-X8Cd%%%--",
"%1o;-;Cm7o%1--1--%;--8hC--;--;",
";;;-;%-Cm8-;%%;%-;;o7CC--;---%",
"--------dLh--%%;;-;dLg%-------",
"---------1hUGcbccJLh7%-;------",
"---------;-;eryye11--%;%------",
"--------;-;;%-;-;-1-;-;-------",
"--------;-;;--;--%;-;---------",
"--------;1%%;--;7%----1o------"
};
