/* XPM */
static char *sphere[] = {
/* columns rows colors chars-per-pixel */
"30 30 11 1 ",
"  c gray20",
". c #393939",
"X c gray25",
"o c gray30",
"O c #535353",
"+ c gray35",
"@ c #606060",
"# c gray40",
"$ c gray45",
"% c #797979",
"& c gray55",
/* pixels */
"                              ",
"                              ",
"                              ",
"            XooooX            ",
"         .#&%####%&#.         ",
"        @&+.      .+&+        ",
"       $%.          .%$       ",
"      $$              $$      ",
"     @%                %+     ",
"    .&.                .&.    ",
"    #+                  +#    ",
"    &.                  .&    ",
"   X%                    %X   ",
"   o#                    #o   ",
"   O#                    #o   ",
"   O#                    #o   ",
"   o#                    #o   ",
"   X%                    %X   ",
"    &.                  .&    ",
"    #+                  +#    ",
"    .&.                .&.    ",
"     @%                %+     ",
"      $$              $$      ",
"       $%.          .%$       ",
"        +&+.      .+&+        ",
"         .#&%####%&#.         ",
"            XooooX            ",
"                              ",
"                              ",
"                              "
};
