/* XPM */
static char *fec4fdfebdb94233d7f45a0a073cc6a8[] = {
/* columns rows colors chars-per-pixel */
"135 37 65 1 ",
"  c #374355",
". c #384456",
"X c #3A4659",
"o c #3C495C",
"O c #3D4D65",
"+ c #3F5068",
"@ c #404C5F",
"# c #414E62",
"$ c #445266",
"% c #485567",
"& c #45556B",
"* c #49576A",
"= c #49586E",
"- c #4B5C73",
"; c #505E70",
": c #4F6077",
"> c #4E6078",
", c #556375",
"< c #53657D",
"1 c #586679",
"2 c #5C6A7D",
"3 c #576980",
"4 c #5B6C83",
"5 c #5F7086",
"6 c #606E81",
"7 c #647285",
"8 c #657489",
"9 c #68768A",
"0 c #6B7A8E",
"q c #6E7D91",
"w c #707F92",
"e c #738296",
"r c #778699",
"t c #78879A",
"y c #7B8A9D",
"u c #7D8CA0",
"i c #828FA1",
"p c #8393A6",
"a c #8A96A6",
"s c #8D99A9",
"d c #929EAD",
"f c #99A4B3",
"g c #9FA9B7",
"h c #A3ACB9",
"j c #A9B2BE",
"k c #AEB7C2",
"l c #AFB8C3",
"z c #B5BDC7",
"x c #B6BEC8",
"c c #BBC2CC",
"v c #CACFD7",
"b c #CDD2D9",
"n c #D0D5DC",
"m c #D5D9DF",
"M c #D7DBE1",
"N c #D9DDE2",
"B c #DEE1E6",
"V c #E2E5E9",
"C c #E6E9ED",
"Z c #E9EBEE",
"A c #ECEEF1",
"S c #F2F3F5",
"D c #F6F7F8",
"F c #F7F8F9",
"G c #FEFFFF",
/* pixels */
"OOOOOOOO+OOOOOOOOOOO+OOOOO+OOOOO#OOOOOOOOOOOOOOOOOOOOOOOOOOOOOOOOOOOOOOOOOOOOOOO##OOOO#OOOOO#OOOOO##OOOOOOOOOOOOOOOO#OO#OO+OOOOOOOOOOOO",
"OO+->>>>>>>>>>>>>>>>>>>>>>>>>>>>>>>------=------=&OOOOOOOOoOOOOOOOO+============&-==============&=&================&==&========&====OOO",
"O&<<<<<<<<<<<<<<<<<<<<<<<<<<<<<<<<<#$$$$$$$$$$$$&>-#OOOOOOOOOOOOO&>=&#&#+$$$&$$$$$$$$$+$$$+&&$$$++&<&$++$$$$$$$$$&++$$&$$$+$$$$$$$$&>=O",
"O<<<<<<<<<<<<<<<<<<<<3<<<<<<<<<<<<<              X--OOOOOOOOOOOO+>X   . ...                     . X<.  X  .   .    X      ..   .    X:&",
"=<<<<<<<3<<<<<<<<<<<<<<<<<<<<<<<<<<               o>OOOOOOOOOOOO-#                                 >.                                #-",
"-<<<<<<<<<<<<<<3<<<<<<<<<<<<<<<<<<<                <#OOOOOOOOOOO>@                                 <.                                X<",
"-3<<<<<<<<<<<<<<<<<<<<<<<<<<<<<<<<<                >OOOOOOOOOOOO>X                                 <                                 X:",
"-3<<<3<<<<<<<<333333<<<<<<<<<<<<<<<                <#OOOOOOOOOOO:@                                 <X                                X<",
"->33<<<<<3<<3pcVAAVcs5<<<<<<<<<<<<<                <OOOOOOOOOOOO,o                                 <X                                X>",
"-33><<<<<<38vZcptuuxCv5<<<<<<3<<<<<       ;2       <+OOOOOOOOOOO>o                                 <                                 X:",
"->3>3<>3<35bVq<<<<<<qMC8<<<<<<<<<<<      ;w82      >+OOOOOOOOOOO>X                                 <.                                X<",
"-3>3>33><3hm5<<<343<<8Bc3<<<<<<<<<<     ;qX 81     <OOOOOOOOOOOO>o               .@                <.                 ..             X:",
"-3>3>3>3<3Vd3<<<3up8<<uV5<<<<<<<<<<     @X   $     >+OOOOOOOOOOO>o             .7ip9@              <         ##. X;6qq6=.            X<",
"-3333>3><3Cy<<<<<<<p4<3Z0<<<<<<<<<<                <+OOOOOOOOOOO>o             ,t*@q7              <         *i##wpppippw#           X:",
"->3>3>33<5Cy<<<3<<<4533Z0<<<<<3<<<<                <+OOOOOOOOOOO>o        . $*$w7%$,i*$$X          >.        *piip0*@@=0pp&          X:",
"-3>3>3>3<3Zu<<<<<<<<<<5Z8<<<<<<<<<<                >OOOOOOOOOOOO>o        .,pppppppppppa7          <.        *ppp2..    :ptX         X:",
"-<<<<<<3<<bl3<<<<<3<33jM43<<<<<<<<<                <OOOOOOOOOOOO,X         @6uppppppppp7*          <.       .*pppi#.     7p7         X<",
"-<<<<<<<<<iVs3<<<<<<3sSd<<<<<<<<<<<                <+OOOOOOOOOOO>o           0p*w8,u$uu            <.       .#77774.    ..pw        .X:",
"-3<3<<<<<<4fSs<<<<<<iVg3<<3<3<<<<<<##$$$+##$+$##O##<+OOOOOOOOOOO>o           wp@02;u yu            <.                     wp.        X>",
"-3<<<<<<<<<3zBq<<<<5mk3<<<<<<<<<<<<####$$#$##$+$#$+<+OOOOOOOOOOO>o           0p@06;u yu            ,.                     0p#        .<",
"->3<<<<<<<<<3Vh<<<3sBq<<<<<<<<<<<<<             .  <OOOOOOOOOOOO>o          .0p@02;u yu            <.          .        ..wp.       .X>",
"-3<<<<<<<<<<<gn5<<<Mx3<<<<<<<<<<<<<             ...>OOOOOOOOOOOO>o          .0po02*u uu            <.         -0@       .#pw        ..<",
"-<<<3<<<<<3<<pSjhghFh3<<<<<3<<<<<<<                <OOOOOOOOOOOO>o           0p@q2*u yu            <.         6pq..    ..qp,         .:",
"-<<<<<<<<<<<<MGGGGGGM0<<<<<<<<<<<<<              ..>OXOOOOOOOOOO:o         ..qp@q2;u yu            >.         Xwi9..   .7pq        ..X<",
"-33>33>3<3<<<vGGGGGGn5<<<<<<<<<<<<<                >$OOOOOOOOOOO:o           0p9ywqp7py            <           #ypi9;=6tpt@          X>",
"->>3>33><<<<3NGGGGGGN0<<<<<<<<<<<<<     @X   #     <++OOoOOOOOOO:o           9ppapppppw.           <            @9ippppp7X           X<",
"-3>>3<<<<<<<<kGGGGGGc4<<<<3<3<<<<<<     *wX 81     <+OOOOOOOOOOO-o           .$*%%*%*%X            <              @,66*@             X>",
"-333><<<<<<<<sGGGGGFj3<<<<<<<<<<<<<      ;q94      >OOOOOOOOOOOO,o                                 <                                 X>",
"-3<<3<<<<<3<<0xFGGFcw3<<<<<<<<<<<<<       ;2       <+OOOOOOOOOOO>X                                 <                                .X<",
"-<<<>3<<<<<<<<<fGFf<<3<<<<<<<<<<<<<                >+OOOOOOOOOOO>@                                 <                                .X>",
"-<<<>3<<<<<<<<<<34<<<<<<<<<3<<<<<<<                <OOOOOOOOOOOO>X                                 <                                 X>",
"-<<<3>3<<<<<<3<<<<<<<<<<<<<<<<<<<<<                >+OOOOOOOOOOO>o                                 <.                                X>",
"-3<<<<<<<3<<<<<<<<<<<<<<<<<<<<<<<<<X               <#OOOOOOOOOOO-O                                 <                                 X>",
"-><<<<<<<<<<<<<3<<3<<<<<<3<<<3<<<<<              .o>OOOOOOOOOOOO=$                                 <                                 #-",
"+3<<<<<<<<<<<<<<<<<<<<<<<<<<<<<<<<>XX           ..=-OOOOOOOOOOOO$>X                                <                               .X>&",
"O+<<<<<<<<<<<<<<<<<<<<<<<<<<<<<<<<<++++++&+&$&$&&>-OOOOOOOOOOOOOO=>=$$&$$$$$$$+&&$$$$$$&$$$$$$+&$$$<&$$$$&#&$$$$$$$&$&$$$$$$$&$$$&$&>=O",
"OO+-->>>>>>>>>>>>>>>>>>>>>>>>>>>>>>-----=------=-&OOOOOOOOOOOOOOOO+&===============&====================================&=======&==&+OO"
};
