/* XPM */
static char *top_left[] = {
/* columns rows colors chars-per-pixel */
"220 37 72 1 ",
"  c #374355",
". c #384456",
"X c #3A4659",
"o c #3D4A5D",
"O c #3D4D65",
"+ c #404C5E",
"@ c #404E62",
"# c #445367",
"$ c #485567",
"% c #45546B",
"& c #4A576A",
"* c #47586E",
"= c #48586E",
"- c #475971",
"; c #4C5C73",
": c #515E71",
"> c #4F6077",
", c #4E6078",
"< c #536174",
"1 c #53657D",
"2 c #59677A",
"3 c #5C6A7D",
"4 c #576980",
"5 c #5A6B82",
"6 c #5F7086",
"7 c #616F82",
"8 c #647286",
"9 c #657489",
"0 c #687689",
"q c #6B7A8E",
"w c #6F7E91",
"e c #707F93",
"r c #738296",
"t c #768599",
"y c #78879A",
"u c #7B8A9E",
"i c #7D8DA1",
"p c #808D9F",
"a c #818EA0",
"s c #8393A7",
"d c #8996A6",
"f c #8F9BAA",
"g c #929EAD",
"h c #96A1AF",
"j c #96A1B0",
"k c #9AA4B2",
"l c #9FA9B6",
"z c #A0AAB7",
"x c #A2ABB9",
"c c #AAB3BF",
"v c #ACB5C0",
"b c #AFB8C3",
"n c #B1BAC4",
"m c #B6BEC8",
"M c #BDC4CD",
"N c #C1C7CF",
"B c #C3CAD2",
"V c #C9CED6",
"C c #CED3DA",
"Z c #D1D6DC",
"A c #D4D8DE",
"S c #D6D9E0",
"D c #DADEE3",
"F c #DFE1E6",
"G c #E3E6EA",
"H c #E6E9EC",
"J c #EBEDEF",
"K c #EBEDF1",
"L c #EFF1F3",
"P c #F2F3F5",
"I c #F7F8F9",
"U c #FFFFFF",
/* pixels */
"OOOOOOOOOOOOOOOOOOOOOOOOOOOOOOOOOOOOOO@OO@OOOOOOOO@@OOOOOOOOOOOOOOOO@OO@OO@OO@OOOOOOOOOOOOOOOOOOOOOOOOOOOOOOOOOOOOOOOOOOOOOOOOOOOOO@OOOOOOOOOOOOOOOOOOOO@@@@OOOOO@@O@@@@OO@OO@OO@OOOOO@OO@OOOOOOOOOOOOOO@OOOOOOOOOOOOOOOOOOO",
"OOOOO#-,,,,,,,,,,,,,,,,,,,,,,,,,,,,,,,;--;;;;;-;-;---OOOOOOOOOOOOOOO@%-%---%-%--============-%-====-=====-=====-==-%=-=====-==*=%%-=-%%@OOOOOOOOOOOOOO%%=%-%----%=%-%=-%--=%--%-======----=-=-=====-==============-%==%%#OOO",
"OOOO-444111111111111111111111111411111##########%##=,;OOOOOOOOOOOOO%1=%O%#####%##############%#######,=####%######################%%%%,;OOOOOOOOOOOO@-,%%##%%###@%%%%#@%%#####%##%#####1####################%##########=,-OO",
"OOO#4,4,111411411111111411411111111111              X;-OOOOOOOOOOOO,o X               .              ,X           ..  .               X=%OOOOOOOOOOO%-XX        X                     X,                  .     . ..    X,#O",
"OOO-,,4,111111111114111141111111111141               @;@OOOOOOOOOO-%                                 ,X.                               X,@OOOOOOOOOO,O                                X1                                 #-O",
"OOO,444411111141141111111111411111111,               X,OOOOOOOOOOO-@                                 ,X.                                1OOOOOOOOOOO,X                                o,                                 O;O",
"OOO,,4,411111111111111111111411141111,               X,@OOOOOOOOOO;@                                .,+.                                ,OOOOOOOOOOO,X                                +,                                 o;O",
"OOO,4,4,141111141144441111111111111111               X,OOOOOOOOOOO;@                                 ,X                                 1OOOOOOOOOO@,X                                X1                                 o,O",
"OOO,4,4111141116gBFKKDmi41111111111111               X,OOOOOOOOO@@-@                +                ;o                                 ,OOOOOOOOOOO,XX                               X,                                 o,O",
"OOO,1111114,11eZGniyyfBGM641111111114,       2:      X,@OOOOOOOOO@;@               @p:              .,o.                                1OOOOOOOOOOO,X               X                +,                                .o;O",
"OOO,1111,4,44eGC94,4411tGC61111411111,X     50w>     X,OOOOOOOOOOO-@              @pss:              ,o                                 1OOOOOOOOOOO1X             @ess0o             X1              ..                 o;O",
"OOO,1114414,5MV5,4445114eDz4111111411,     29 Xe;    X1OOOOOOOOOOO;@            X@pssss:            .;o               ..                ,@OOOOOOOOOO,X            Xyy23pw             X,               .                 o>O",
"OOO,414,11116Gy44116ii644jS41111,4111>     @   X@X   X,@OOOOOOOOOO-@            X78wde99+            ,o.            :7qe7:X  @$         1OOOOOOOOOOO1X            =s#  :s#            +,         %+...:7wq7&            .o;O",
"OOO,14111111eD61111111i54tK411144,1141               X,OOOOOOOOOOO-@               &s7               ,X           @essssssy$@y:         1@OOOOOOOOOO,X        @0weesweeeseee0X        X1        .:y@%yssssssq+          .o>O",
"OOO,11111141eS91114,1164,rK4111114411>               X,@OOOOOOOOOO;@              X&s6               :o.        .#asw&+X&9ssis:         1OOOOOOOOOOO1X        ,sssdssssssssss=        X,         :spss9&X+=wsa@         .o>O",
"OOO,11111111qGq4111411444iG4111114,14,               X,@OOOOOOOOO@;@         #@    =s7    .:         ,o.        Xys2     .<sss:        X,OOOOOOOOOOO,X        X&0ssssssssds5&         +,         :sss:. ..X 2seX         o>O",
"OOO,411111115Dg4111111111MN11411111111             . X,OOOOOOOOOOO;@X       $p%    +e&..   s:        >o         2s8      +usss:         ,OOOOOOOOOOO1X          5s7os&<a qs:X         X,        .:sssy+      qs2         o;O",
"OOO,111141114kKi41111144lHu11111411111..     X     . .1OOOOOOOOOOO-@       @ps%     X. .   ss:       >o        .ts+     .38888#         1@OOOOOOOOOO,.          7s7+s&<s qs:          X1        .#88882      @sq         o,O",
"OOO,1111,44145vKi114114jLf411111111111@@@#@@@O#@@#%@@%1OOOOOOOOOOO-@      #psspipy;  .+yiipsss:      >X        .se          ..          1OOOOOOOOOOO1           3s7+s&<s qs:          +>            ..        ai         o;O",
"OOO,11114,,4114BV61141eGk4114111111111@###@#@%@@#@@@@#,OOOOOOOOOOO;@      @psspiii&  .#eiipsss;.     >o         $o          +3X         ,OOOOOOOOOOO1X          3s7+s&<s ws:          +,             .        es.        o;#",
"OOO,111111144,4qGs1111cZ5111111111411>               X,OOOOOOOOOOO-O       @ps&   .. ...   ss:       >X                     8d&         1@OOOOOOOOOO,X          5s7+s&<s qs:          X,                      ay.       .o,O",
"OOO,1114111114,4mM1441Fj14111111111111               X1OOOOOOOOOOO;+        @p&    +y&     s:        >o        orrtrqX     .uaX         1@OOOOOOOOOO1X          3s7+s&<s qs:          +,          :0..      .&s0         o,O",
"OOO,111411114,44cKzllzLd11111111111111               X;OOOOOOOOOOO;O         ##   .&s7     :         >o       .osdsu@      3s9          1OOOOOOOOOOO1           3s7+s&<s qs:          X,        ..8s0.      .es:         o;O",
"OOO,11111111,4,9GUUUUUUB4111141111141,               X,OOOOOOOOOOO;O              .&s7               >o      ..ossswo.   .2suo          1OOOOOOOOOOO1.          3s7+s=<a qs:         XX1        ..Xus7    .Xqs9          o,O",
"OOO,111114,44,45DUUUUUUm4111141111411,               X,@OOOOOOOOOO;+             . &s6               >o       .osurdu7:&2rsa$           1OOOOOOOOOOO,.          3saasppsiss;          X1           #psu8::7useX.         o;O",
"OOO,1111114,4449HUUUUUUV44111111111111     +   X@    X,OOOOOOOOOOO;@            .70ede09+            >o       .ouO 3ssssssq+            1OOOOOOOOOOO4           &dsssssssss#          X,            +wssssas5.           o,O",
"OOO,1141,411,444NUUUUUUl4111111111111,.    29.Xw;   .X,@OOOOOOOOOO-@             #psdss:             >o        X@   o&36<#              ,OOOOOOOOOOO4.           +@+++++++X           +1              @273=X             o;O",
"OOO,111141114,,4cUUUUUId11114111111111.     59w:     X,OOOOOOOOOOO;@              @pss:              ,o              .                  1OOOOOOOOOOO,.                                X,               . ..              o,O",
"OOO,114111111114tMUUUPb01111111111111>       4:      X,OOOOOOOOOOO-@               #p:               >o                                 ,OOOOOOOOOOO1                                 X1                                .o>O",
"OOO,11111141111111cUIi4114111111114141               X,OOOOOOOOOOO;@                .                >o                                 1OOOOOOOOOOO1                                 X1                                .o;O",
"OOO,111111114111111441111111111111111>               X,@OOOOOOOOOO;@                                 ,o                                 1OOOOOOOOOOO1X                                X1                                .o>O",
"OOO11111411111111111141111111411411111               o,OOOOOOOOOOO;+                                 ,o                               ..,OOOOOOOOOOO1.                                X,                                .o,O",
"OOO,111111111141111411111111111111111,X              X1OOOOOOOOOOO;@                                 >o                                 ,@OOOOOOOOOO,X.                               X1                                 O;O",
"OOO-1111111111111111111111111111141111               @;OOOOOOOOOOO*%                                 ,o                                X,OOOOOOOOOOO;@                               .o,                                 @;O",
"OOO-1111141111111111111411411111411111            ..X;;OOOOOOOOOOO@1o                                ,o .                             .;-OOOOOOOOOOO*;X        .                  ..  X1         .  .        .          X,@O",
"OOOO-111111111111111111111111111111111O-O-O%%%O%##%%,;OOOOOOOOOOOOO%,*#$####$##########$####$########,%########$####$################*,;OOOOOOOOOOOOO=,*##############################%,###############################=1*OO",
"OOOOOO-1,,,,1,,,,,,,,,,,1,,,,,,,,,,,,,--;;;;-;-;;;;%%OOOOOOOOOOOOOOOO%-&-&*--&--***-&--&-&*--&---&-&*-----&-&-&-**--&-&-&--&**--==*==*@OOOOOOOOOOOOOOO@**==*==**;***==*=-====*========*-;*****===========*=====*=*==****OOOO"
};
