/* XPM */
static char *top_right[] = {
/* columns rows colors chars-per-pixel */
"82 37 110 2 ",
"   c #374355",
".  c #384456",
"X  c #384457",
"o  c #384557",
"O  c #394557",
"+  c #394558",
"@  c #394658",
"#  c #3A4659",
"$  c #3B485B",
"%  c #3C485A",
"&  c #3C485B",
"*  c #3C495C",
"=  c #3D4A5D",
"-  c #3E4A5C",
";  c #3E4B5D",
":  c #3D4D65",
">  c #3F4F66",
",  c #3F5067",
"<  c #404D5F",
"1  c #414D5F",
"2  c #414D60",
"3  c #414E60",
"4  c #414F63",
"5  c #434F62",
"6  c #435062",
"7  c #445063",
"8  c #445163",
"9  c #425064",
"0  c #405067",
"q  c #415167",
"w  c #455164",
"e  c #455264",
"r  c #445367",
"t  c #475467",
"y  c #485567",
"u  c #425269",
"i  c #43536A",
"p  c #445368",
"a  c #45546B",
"s  c #46556A",
"d  c #47566B",
"f  c #45556C",
"g  c #46556C",
"h  c #46566C",
"j  c #47576C",
"k  c #46566D",
"l  c #4A576A",
"z  c #47586E",
"x  c #48586E",
"c  c #49586E",
"v  c #4C596C",
"b  c #4E5B6D",
"n  c #4E5B6E",
"m  c #4F5D6F",
"M  c #4A5A71",
"N  c #4B5C72",
"B  c #4C5C73",
"V  c #4D5E75",
"C  c #505D70",
"Z  c #515F71",
"A  c #4E6077",
"S  c #4F6077",
"D  c #4F6078",
"F  c #526073",
"G  c #536073",
"H  c #546174",
"J  c #556275",
"K  c #566476",
"L  c #566477",
"P  c #506279",
"I  c #51627A",
"U  c #576578",
"Y  c #53657D",
"T  c #586679",
"R  c #5C6A7D",
"E  c #5D6B7E",
"W  c #5E6C7F",
"Q  c #627083",
"!  c #637184",
"~  c #69788B",
"^  c #6A798C",
"/  c #6C7B8E",
"(  c #6D7B8F",
")  c #6D7C8F",
"_  c #6D7C90",
"`  c #6E7D91",
"'  c #6F7E91",
"]  c #707F92",
"[  c #718093",
"{  c #718094",
"}  c #738296",
"|  c #748396",
" . c #748497",
".. c #758498",
"X. c #758598",
"o. c #768699",
"O. c #77869A",
"+. c #79899D",
"@. c #7A899D",
"#. c #7B8A9E",
"$. c #7B8B9E",
"%. c #7C8B9F",
"&. c #7C8CA0",
"*. c #7E8EA2",
"=. c #8090A4",
"-. c #8190A4",
";. c #8191A5",
":. c #8291A5",
">. c #8292A6",
",. c #8393A7",
/* pixels */
": : : : : : : : : : : : : : : : : : : : : : : : : : : : : : : : : : : : : : : : : : : : : : : : : : : : : : : : : : : : : : : : : : : : : : : : : : : : : : : : : : ",
"u k x x x x x x x x x x x x x x x x x x x x x x x x x x x z s : : : : : : : : : : : : : : : : 9 k k k M x x x x x x x x x x x x c c c c c c k c c c x k z s , : : : ",
"V s r r r r r r r r r r r r r r r r r r r r r r r r r r r r x P s : : : : : : : : : : : : : M P d r p r r r r r r r r r r r r r r r r r r r r r 9 s s 9 i j D z : : ",
"                                                          . . * P , : : : : : : : : : : : k B                                                               @ D i : ",
"                                                                s k : : : : : : : : : : : D =                                                                 6 N : ",
"                                                                9 M : : : : : : : : : : : Y .                                                                 $ D : ",
"                                                                4 M : : : : : : : : : : : Y                                                                   * D : ",
"                                                                4 M : : : : : : : : : : : Y                                                                   * D : ",
"                                                                4 M : : : : : : : : : : : Y                                                                   $ D : ",
"                                                                4 M : : : : : : : : : : : Y                                                                   $ D : ",
"                                                                4 M : : : : : : : : : : : Y                                                                   $ D : ",
"                . r y y y y y y y y y y y y *                   4 M : : : : : : : : : : : Y                     e r y y y y t y t 9                           $ D : ",
"                L ,.:.:.:.:.:.:.:.:.:.:.:.>.o.                  4 M : : : : : : : : : : : Y                   t >.-.,.,.>.>.=.:.,.,.| 1                       $ D : ",
"                W )           .     .   . v =.                  4 M : : : : : : : : : : : Y                   b &.  $.,.>.|     $.K ( $.4                     $ D : ",
"                W / . G _ l               v %..                 4 M : : : : : : : : : : : Y                   b $.  @.>.>._     @.m . ( o.4                   $ D : ",
"                W / @ *.,.|               v =.                  4 M : : : : : : : : : : : Y                   b &.  $.,.,.]     $.m   . ( ]                   $ D : ",
"                W /   ) :.W     1 W       v *..                 4 M : : : : : : : : : : : Y                   b $.  @.,.,.$.U T =.b     = >.=                 $ V : ",
"                W /     ; .   . ) :.6     x *.                  4 M : : : : : : : : : : : Y                   b &.  Z | ..| | ../ @     @ ,.7                 $ D : ",
"                W /     * o.e m :.,.[     v *.                  4 M : : : : : : : : : : : Y                   b $.                      . ,.7                 $ D : ",
"                W )     ^ ,.o.$.,.,.,.G   v *.                  4 M : : : : : : : : : : : Y                   b &.                      @ >.7                 = D : ",
"                W /   K ,.,.,.,.,.,.,.%.* v %.                  4 M : : : : : : : : : : : Y                   b &.  R ....o...o.X.X.X.Z . ,.4                 @ D : ",
"                W )   J K K K K K K K K e v *.                  4 M : : : : : : : : : : : Y                   b &.  $.Q J J J J J J ~ ] . >.1                 = D : ",
"                W X.J J J J J J J J J J J Q *.                  4 M : : : : : : : : : : : Y                   b $.  $.b             T ] @ ,.e                 @ D : ",
"                W ,.,.,.,.,.,.,.,.,.,.,.,.,.*.                  4 M : : : : : : : : : : : Y                   b &.  $.b             T [ . ,.1                 % D : ",
"                W ,.,.,.,.,.,.,.,.,.,.,.,.,.*.                  4 M : : : : : : : : : : : Y                   b @.  $.b             T ] . ,.e                 $ D : ",
"                L ,.,.,.,.,.,.,.,.,.,.,.,.>.o.                  4 M : : : : : : : : : : : Y                   y ,.:.,.:.:.:.:.:.:.:.:.:.,.:.*                 $ D : ",
"                  e s y y y y y y y y y y y *                   4 M : : : : : : : : : : : Y                     7 y y y y y y y y y y s d 1                   $ D : ",
"                      .               .                         4 M : : : : : : : : : : : Y                                                                   * D : ",
"                                                                4 M : : : : : : : : : : : Y                                                                   * D : ",
"                                                                4 M : : : : : : : : : : : Y                                                                   @ D : ",
"                                                                4 M : : : : : : : : : : : Y                                                                   * D : ",
"                                                                4 M : : : : : : : : : : : Y                                                                   * D : ",
"                                                                9 M : : : : : : : : : : : Y                                                                   * V : ",
"                                                                g g : : : : : : : : : : : D =                                                                 4 B : ",
"                                                              = P 0 : : : : : : : : : : : g B X                                                         .   @ D s : ",
"V s r r r r r r r r r r r r r r r r r r r r r p r r r r r r M P a : : : : : : : : : : : : : B V d p p p r r p p r r r r r r r r r r r r r r r r r r r r u z D z : : ",
"u k x x x x x x x x x x x x x x x x x x x x x x c k x x x x s : : : : : : : : : : : : : : : : 0 a c c c c c k x x x x x x x x x x x x x x x x x x x x x x k 4 : : : "
};
