/* XPM */
static char *fa0b896346814d5484aaf3a7c686b6a8[] = {
/* columns rows colors chars-per-pixel */
"36 37 75 1 ",
"  c #374355",
". c #384456",
"X c #384557",
"o c #394557",
"O c #394658",
"+ c #3A4658",
"@ c #3A4659",
"# c #3B4759",
"$ c #3A475A",
"% c #3C485A",
"& c #3D4A5C",
"* c #3E4A5C",
"= c #3D4B5E",
"- c #3F4B5E",
"; c #3E4B5F",
": c #3F4C5E",
"> c #3D4D65",
", c #3E4E65",
"< c #404F66",
"1 c #435062",
"2 c #445163",
"3 c #435266",
"4 c #455164",
"5 c #445367",
"6 c #475467",
"7 c #485567",
"8 c #415168",
"9 c #445368",
"0 c #45556B",
"q c #46556B",
"w c #46566B",
"e c #45556C",
"r c #46566C",
"t c #495669",
"y c #48576D",
"u c #48586E",
"i c #4E5B6D",
"p c #4E5B6E",
"a c #495970",
"s c #4A5A70",
"d c #4B5C73",
"f c #4D5D75",
"g c #4D5E75",
"h c #4E5F76",
"j c #515E71",
"k c #556275",
"l c #576477",
"z c #506179",
"x c #51627A",
"c c #51637A",
"v c #576578",
"b c #5A687B",
"n c #5F6D80",
"m c #616F82",
"M c #667588",
"N c #68768A",
"B c #68778A",
"V c #6A798C",
"C c #6B798D",
"Z c #6D7C90",
"A c #707F92",
"S c #718093",
"D c #718094",
"F c #748397",
"G c #748497",
"H c #758598",
"J c #768599",
"K c #768699",
"L c #77869A",
"P c #8090A3",
"I c #8090A4",
"U c #8191A5",
"Y c #8291A5",
"T c #8292A6",
"R c #8393A7",
/* pixels */
">>>>>>>>>>>>>>>>>>>>>>>>>>>>>>>>>>>>",
">>8quuuuyyuuuuuuuuuuuuuuuuuuuuuuq<>>",
">dhq5555555999555555555555555559rcr>",
"us..                             #c8",
"c$                                3u",
"c                                 >d",
"c                                 =g",
"c                                 =g",
"c                                 =g",
"c                                 =g",
"c                                 =g",
"z          47776666q1             =g",
"c         iTIRRRRPTRRS*           =g",
"z         kJ IRRC .PjDJ*          =g",
"c         kJ IRRN .P7%SJ*         :d",
"z         kJ IRRN  T7 #DV         =h",
"c         kK PRRJvbTt  5T.        *h",
"c         kG vGGGGGM   :R%        =d",
"c         kK           :R%.       >d",
"c         kG           :R%.       *h",
"c         kG mKGGJGGJGi*T%        *h",
"c         kK YnkkkkkkZV:R%        =d",
"c         kG Y7 .   .mV:R%        >d",
"c         kK Y7      bV*R%        *h",
"c         lG P6      nV:R%        =h",
"h         iRRRRYYYYYPRTTP.        =d",
"x          4667767666666:         *h",
"x                   ..  ..        =d",
"x                                 *h",
"x                                 *h",
"x                                 *d",
"x                                 >h",
"x                                 *h",
"x%                                3s",
"ys                               @c8",
">dz75599555555555555555555555559rce>",
">>8ruuuuuuuuuuuuuuuuuuuuuuuuuuuue<>>"
};
